<svg xmlns="http://www.w3.org/2000/svg" viewBox="0 0 970 250"><title>txt1</title><g id="Layer_2" data-name="Layer 2"><g id="rect"><rect width="970" height="250" fill="none"/></g><g id="Layer_9" data-name="Layer 9"><path d="M44.3,85.71H35.42V36.39H24.3V28.2H55.51v8.19H44.3Z" fill="#e5e6e7"/><path d="M92.15,67.43c0,6.47-1,10.34-3.28,13.62-2.58,3.62-6.9,5.52-12.41,5.52S66.63,84.67,64,81.05c-2.33-3.28-3.28-7.15-3.28-13.62v-21c0-6.47,1-10.35,3.28-13.62,2.59-3.63,6.9-5.52,12.42-5.52s9.83,1.89,12.41,5.52c2.33,3.27,3.28,7.15,3.28,13.62Zm-22.5-.17c0,4.57.25,6.12,1.12,7.84a6.76,6.76,0,0,0,11.38,0c.95-1.81,1.12-3.19,1.12-7.84V46.65c0-4.66-.17-6-1.12-7.85a6.77,6.77,0,0,0-11.38,0c-.87,1.73-1.12,3.28-1.12,7.85Z" fill="#e5e6e7"/><path d="M100.34,28.2h14c11.3,0,16.64,5.78,16.64,18V67.69c0,12.24-5.34,18-16.64,18h-14Zm13.28,49.32c6.29,0,8.53-3.28,8.53-12.25V48.63c0-9.05-2.24-12.24-8.53-12.24h-4.4V77.52Z" fill="#e5e6e7"/><path d="M147.5,73.21l-2.33,12.5h-8.71l11-57.51h12.16L171.3,85.71h-9.14l-2.42-12.5Zm6-34L148.88,65h9.4Z" fill="#e5e6e7"/><path d="M192.68,85.71H183.8V63.29L170.86,28.2h9.83l7.68,24.31L196.3,28.2H206L192.68,63.29Z" fill="#e5e6e7"/><path d="M233.8,77.52h17.67v8.19H224.92V28.2h8.88Z" fill="#e5e6e7"/><path d="M283,36.39H265.87V51.56h12.68v8.2H265.87V77.52H283v8.19H257V28.2h26Z" fill="#e5e6e7"/><path d="M307.94,85.71h-8.88V36.39H287.94V28.2h31.21v8.19H307.94Z" fill="#e5e6e7"/><path d="M333.2,37.43l-5.08,11.89h-3.28l3.8-11.89h-3.8V28.2h8.36Z" fill="#e5e6e7"/><path d="M359.71,44.24c-1.38-5.69-4-8.54-7.59-8.54a5.69,5.69,0,0,0-5.78,5.86,8.65,8.65,0,0,0,2.42,5.78c1.46,1.64,1.46,1.64,7.59,6.29,4.82,3.8,6.63,5.44,8.53,7.76a16.8,16.8,0,0,1,3.71,10.52c0,8.71-6.38,14.66-15.78,14.66-9.83,0-15.6-5.26-17.42-16.21l8.54-2.5c1.12,6.9,4.14,10.35,8.88,10.35a6.25,6.25,0,0,0,6.55-6.56c0-3.62-1.81-6-8.53-11.2-8-6.3-8.37-6.64-10.52-9.4a15.61,15.61,0,0,1-3.19-9.57c0-8.28,6.21-14.14,15-14.14,8.19,0,13.71,4.91,16.12,14.4Z" fill="#e5e6e7"/><path d="M399.85,85.71H391V28.2h14.74c5.78,0,9.4,1.12,12.07,3.71,3.11,2.93,4.57,7.24,4.57,13.36s-1.46,10.52-4.57,13.45c-2.67,2.59-6.29,3.71-12.07,3.71h-5.86Zm3.88-31.47c7.15,0,9.4-2.16,9.4-9s-2.25-8.88-9.4-8.88h-3.88V54.24Z" fill="#e5e6e7"/><path d="M435.72,73.21l-2.33,12.5h-8.71l11-57.51h12.15l11.64,57.51h-9.14L448,73.21Zm6-34L437.09,65h9.4Z" fill="#e5e6e7"/><path d="M475.11,85.71h-8.88V28.2h8.88Z" fill="#e5e6e7"/><path d="M515.8,85.71h-7.93L492.35,47.43V85.71H483.9V28.2h9L507.35,64V28.2h8.45Z" fill="#e5e6e7"/><path d="M542.61,85.71h-8.88V36.39H522.6V28.2h31.21v8.19h-11.2Z" fill="#e5e6e7"/><path d="M561.92,28.94v.78h-2.21v5.77h-.9V29.72H556.6v-.78Z" fill="#e5e6e7"/><path d="M562.71,28.94H564l1.89,5.54,1.87-5.54H569v6.55h-.85V31.62c0-.13,0-.35,0-.66s0-.64,0-1l-1.87,5.53h-.88L563.53,30v.21c0,.16,0,.4,0,.73s0,.57,0,.72v3.87h-.85Z" fill="#e5e6e7"/></g></g></svg>