<svg xmlns="http://www.w3.org/2000/svg" viewBox="0 0 970 250"><title>txt2</title><g id="Layer_2" data-name="Layer 2"><g id="rect"><rect width="970" height="250" fill="none"/></g><g id="_Text_Layer_2" data-name="&lt;Text Layer&gt; 2"><path d="M46.91,51,44,35.53,41.2,51H37.92l-4.28-22.8h3.42l2.6,14.7,2.74-14.7h3l3,14.7,2.29-14.7h3.32L50.19,51Z" fill="#e6e7e8"/><path d="M60.35,51H56.83V28.18h3.52Z" fill="#e6e7e8"/><path d="M70.61,51H67.09V31.42H62.68V28.18H75.05v3.24H70.61Z" fill="#e6e7e8"/><path d="M80.87,40.93V51H77.35V28.18h3.52v9.5h5v-9.5h3.52V51H85.9v-10Z" fill="#e6e7e8"/><path d="M111.44,51h-3.15L102.14,35.8V51H98.79V28.18h3.56l5.74,14.19V28.18h3.35Z" fill="#e6e7e8"/><path d="M125.56,31.42h-6.8v6h5v3.25h-5v7.05h6.8V51H115.24V28.18h10.32Z" fill="#e6e7e8"/><path d="M140.54,51,137.6,35.53,134.83,51h-3.28l-4.27-22.8h3.41l2.6,14.7L136,28.18h3l3,14.7,2.29-14.7h3.32L143.83,51Z" fill="#e6e7e8"/><path d="M43,109.91H36.27V66.63H47.36c4.35,0,7.08.84,9.09,2.79,2.34,2.2,3.44,5.45,3.44,10s-1.1,7.92-3.44,10.13c-2,2-4.74,2.79-9.09,2.79H43Zm2.92-23.69c5.39,0,7.08-1.62,7.08-6.75s-1.69-6.68-7.08-6.68H43V86.22Z" fill="#e6e7e8"/><path d="M88.31,96.15c0,4.87-.71,7.79-2.47,10.26-1.94,2.72-5.19,4.15-9.34,4.15s-7.4-1.43-9.35-4.15c-1.75-2.47-2.46-5.39-2.46-10.26V80.38c0-4.86.71-7.78,2.46-10.25C69.1,67.4,72.35,66,76.5,66s7.4,1.42,9.34,4.15c1.76,2.47,2.47,5.39,2.47,10.25ZM71.37,96c0,3.44.2,4.61.85,5.91a5.1,5.1,0,0,0,8.56,0c.72-1.36.85-2.4.85-5.91V80.51c0-3.5-.13-4.54-.85-5.9a5.08,5.08,0,0,0-8.56,0c-.65,1.3-.85,2.46-.85,5.9Z" fill="#e6e7e8"/><path d="M101.81,109.91H95.12V66.63h10.45c4,0,6.49.77,8.57,2.59,2.59,2.21,3.89,5.52,3.89,9.8,0,5.45-2,9.22-5.84,11.23l6.36,19.66h-7l-5.71-17.78h-4Zm2.46-24c2.86,0,4.16-.32,5.19-1.36s1.63-2.85,1.63-5.26-.52-4.08-1.63-5.19-2.33-1.36-5.19-1.36h-2.46V86Z" fill="#e6e7e8"/><path d="M140.55,80.71V79.8c0-5-1.76-7.53-5.07-7.53a4.25,4.25,0,0,0-4,2.14c-.84,1.43-1,2.73-1,6.23V95.05c0,3.31.19,5,.71,6.42a4.5,4.5,0,0,0,4.28,2.79c2.47,0,4.09-1.42,4.81-4.28a24.29,24.29,0,0,0,.38-5.25h6.75v1.49c0,9.41-4.08,14.34-11.87,14.34-4.35,0-7.79-1.69-9.67-4.8-1.62-2.66-2.08-5.19-2.08-11.62V82c0-6.88.52-9.28,2.53-12s5.13-4,9.15-4c7.4,0,11.75,4.93,11.75,13.43v1.3Z" fill="#e6e7e8"/><path d="M160.4,90.83v19.08h-6.68V66.63h6.68v18h9.54v-18h6.68v43.28h-6.68V90.83Z" fill="#e6e7e8"/><path d="M218.8,90.57a22.48,22.48,0,0,1-3.44,10.77,8.12,8.12,0,0,0,4.41,2.73v6.49c-2.72-.13-5.77-1.75-8.17-4.28-3,3-5.32,4.08-8.5,4.08-5.52,0-9.87-4.67-9.87-10.64,0-4,1.69-7.59,5.78-12.39-2.08-4.29-2.86-7.14-2.86-10.45,0-6.3,3.7-10.71,9-10.71,4.68,0,8.05,3.7,8.05,8.89a13,13,0,0,1-2.6,7.46c-1,1.5-1.29,1.82-4.34,5.59a38.81,38.81,0,0,0,4.93,8.43A16,16,0,0,0,213,89.86Zm-19,8.31c0,2.79,1.75,5.13,3.9,5.13a5.32,5.32,0,0,0,4-2.21,31.89,31.89,0,0,1-5.84-8.7A9.74,9.74,0,0,0,199.85,98.88ZM207.19,74c0-2.2-.91-3.5-2.54-3.5s-2.85,1.69-2.85,4.41a18.46,18.46,0,0,0,1.69,7.53C205.89,79.67,207.19,76.75,207.19,74Z" fill="#e6e7e8"/><path d="M242.74,109.91h-6.68V66.63h11.1c4.34,0,7.07.84,9.08,2.79,2.34,2.2,3.44,5.45,3.44,10s-1.1,7.92-3.44,10.13c-2,2-4.74,2.79-9.08,2.79h-4.42Zm2.92-23.69c5.39,0,7.08-1.62,7.08-6.75s-1.69-6.68-7.08-6.68h-2.92V86.22Z" fill="#e6e7e8"/><path d="M271.68,100.5l-1.75,9.41h-6.55l8.3-43.28h9.15l8.76,43.28h-6.87l-1.82-9.41Zm4.55-25.57-3.51,19.41h7.08Z" fill="#e6e7e8"/><path d="M307.05,109.91h-6.69V72.79H292V66.63h23.49v6.16h-8.43Z" fill="#e6e7e8"/><path d="M326.51,109.91h-6.68V66.63h6.68Z" fill="#e6e7e8"/><path d="M357,96.15c0,4.87-.72,7.79-2.47,10.26-2,2.72-5.19,4.15-9.34,4.15s-7.4-1.43-9.35-4.15c-1.75-2.47-2.46-5.39-2.46-10.26V80.38c0-4.86.71-7.78,2.46-10.25C337.74,67.4,341,66,345.14,66s7.39,1.42,9.34,4.15c1.75,2.47,2.47,5.39,2.47,10.25ZM340,96c0,3.44.19,4.61.84,5.91a5.11,5.11,0,0,0,8.57,0c.71-1.36.84-2.4.84-5.91V80.51c0-3.5-.13-4.54-.84-5.9a5.09,5.09,0,0,0-8.57,0c-.65,1.3-.84,2.46-.84,5.9Z" fill="#e6e7e8"/><path d="M381.08,100.5l-1.75,9.41h-6.55l8.3-43.28h9.15L399,109.91h-6.88l-1.82-9.41Zm4.55-25.57-3.51,19.41h7.08Z" fill="#e6e7e8"/><path d="M428.26,109.91h-6L410.61,81.1v28.81h-6.36V66.63H411l10.9,26.93V66.63h6.36Z" fill="#e6e7e8"/><path d="M447.66,109.91H441V72.79H432.6V66.63h23.5v6.16h-8.44Z" fill="#e6e7e8"/><path d="M467.13,109.91h-6.69V66.63h6.69Z" fill="#e6e7e8"/><path d="M480.36,96.15h-9.28V90.77h9.28Z" fill="#e6e7e8"/><path d="M500.61,78.7c-1-4.29-3-6.43-5.71-6.43a4.28,4.28,0,0,0-4.35,4.41A6.48,6.48,0,0,0,492.37,81c1.1,1.24,1.1,1.24,5.71,4.74,3.63,2.86,5,4.09,6.42,5.84a12.66,12.66,0,0,1,2.79,7.92c0,6.55-4.8,11-11.87,11-7.4,0-11.75-4-13.11-12.2l6.42-1.88c.85,5.19,3.12,7.78,6.69,7.78a4.7,4.7,0,0,0,4.93-4.93c0-2.72-1.36-4.48-6.43-8.43-6-4.74-6.29-5-7.91-7.08a11.71,11.71,0,0,1-2.4-7.2c0-6.23,4.67-10.64,11.29-10.64,6.16,0,10.32,3.7,12.13,10.83Z" fill="#e6e7e8"/><path d="M519.3,103.75h13.3v6.16h-20V66.63h6.69Z" fill="#e6e7e8"/><path d="M544.08,109.91H537.4V66.63h6.68Z" fill="#e6e7e8"/><path d="M558,109.91h-6.68V66.63h11.1c4.34,0,7.07.84,9.08,2.79,2.34,2.2,3.44,5.45,3.44,10s-1.1,7.92-3.44,10.13c-2,2-4.74,2.79-9.08,2.79H558ZM561,86.22c5.39,0,7.08-1.62,7.08-6.75s-1.69-6.68-7.08-6.68H558V86.22Z" fill="#e6e7e8"/><path d="M43,168.84H36.27V125.55H56.06v6.17H43V143.4h9.74v6.16H43Z" fill="#e6e7e8"/><path d="M67.41,162.67H80.72v6.17h-20V125.55h6.68Z" fill="#e6e7e8"/><path d="M108.69,155.08c0,4.87-.72,7.79-2.47,10.25-2,2.73-5.19,4.16-9.35,4.16s-7.39-1.43-9.34-4.16c-1.75-2.46-2.47-5.38-2.47-10.25V139.31c0-4.87.72-7.79,2.47-10.25,2-2.73,5.19-4.16,9.34-4.16s7.4,1.43,9.35,4.16c1.75,2.46,2.47,5.38,2.47,10.25ZM91.75,155c0,3.44.19,4.61.84,5.9a5.09,5.09,0,0,0,8.57,0c.71-1.36.84-2.4.84-5.9V139.44c0-3.51-.13-4.54-.84-5.91a5.11,5.11,0,0,0-8.57,0c-.65,1.3-.84,2.47-.84,5.91Z" fill="#e6e7e8"/><path d="M138.66,155.08c0,4.87-.71,7.79-2.46,10.25-1.95,2.73-5.19,4.16-9.35,4.16s-7.4-1.43-9.34-4.16c-1.75-2.46-2.47-5.38-2.47-10.25V139.31c0-4.87.72-7.79,2.47-10.25,1.94-2.73,5.19-4.16,9.34-4.16s7.4,1.43,9.35,4.16c1.75,2.46,2.46,5.38,2.46,10.25ZM121.73,155c0,3.44.19,4.61.84,5.9a5.09,5.09,0,0,0,8.57,0c.71-1.36.84-2.4.84-5.9V139.44c0-3.51-.13-4.54-.84-5.91a5.11,5.11,0,0,0-8.57,0c-.65,1.3-.84,2.47-.84,5.91Z" fill="#e6e7e8"/><path d="M152.16,168.84h-6.69V125.55h10.45c4,0,6.49.78,8.57,2.6,2.59,2.2,3.89,5.51,3.89,9.8,0,5.45-1.94,9.21-5.84,11.22l6.36,19.67h-7l-5.71-17.78h-4Zm2.46-24c2.86,0,4.16-.32,5.2-1.36s1.62-2.86,1.62-5.26-.52-4.09-1.62-5.19-2.34-1.36-5.2-1.36h-2.46v13.17Z" fill="#e6e7e8"/><path d="M191.87,168.84h-6.68V125.55h11.09c4.35,0,7.08.85,9.09,2.79,2.34,2.21,3.44,5.45,3.44,10.06s-1.1,7.92-3.44,10.12c-2,1.95-4.74,2.8-9.09,2.8h-4.41Zm2.92-23.69c5.39,0,7.07-1.62,7.07-6.75s-1.68-6.68-7.07-6.68h-2.92v13.43Z" fill="#e6e7e8"/><path d="M220.81,159.43l-1.75,9.41H212.5l8.31-43.29H230l8.76,43.29h-6.88L230,159.43Zm4.54-25.57-3.5,19.4h7.07Z" fill="#e6e7e8"/><path d="M250.66,168.84H244V125.55h6.69Z" fill="#e6e7e8"/><path d="M281.94,168.84h-6L264.29,140v28.82h-6.36V125.55h6.74l10.91,26.93V125.55h6.36Z" fill="#e6e7e8"/><path d="M301.34,168.84h-6.69V131.72h-8.37v-6.17h23.49v6.17h-8.43Z" fill="#e6e7e8"/></g></g></svg>