<svg xmlns="http://www.w3.org/2000/svg" viewBox="0 0 320 50"><title>txt1</title><g id="Layer_2" data-name="Layer 2"><g id="Layer_8" data-name="Layer 8"><path d="M14.77,36.67H11.32V17.52H7V14.33H19.12v3.19H14.77Z" fill="#e5e6e7"/><path d="M33.36,29.57c0,2.51-.37,4-1.28,5.29A5.61,5.61,0,0,1,27.26,37a5.61,5.61,0,0,1-4.82-2.15c-.91-1.27-1.27-2.78-1.27-5.29V21.43c0-2.51.36-4,1.27-5.29A5.63,5.63,0,0,1,27.26,14a5.63,5.63,0,0,1,4.82,2.14c.91,1.28,1.28,2.78,1.28,5.29Zm-8.74-.06a6.21,6.21,0,0,0,.43,3,2.62,2.62,0,0,0,4.42,0c.37-.7.44-1.24.44-3v-8c0-1.81-.07-2.34-.44-3.05a2.64,2.64,0,0,0-4.42,0,6.26,6.26,0,0,0-.43,3.05Z" fill="#e5e6e7"/><path d="M36.54,14.33H42c4.38,0,6.46,2.25,6.46,7v8.34c0,4.76-2.08,7-6.46,7H36.54Zm5.15,19.16c2.45,0,3.32-1.27,3.32-4.75V22.27c0-3.51-.87-4.75-3.32-4.75H40v16Z" fill="#e5e6e7"/><path d="M54.86,31.82,54,36.67H50.57l4.29-22.34h4.72L64.1,36.67H60.55l-.94-4.85Zm2.34-13.2-1.81,10H59Z" fill="#e5e6e7"/><path d="M72.4,36.67H69V28l-5-13.64h3.82l3,9.45,3.08-9.45h3.75L72.4,28Z" fill="#e5e6e7"/><path d="M88.38,33.49h6.86v3.18H84.93V14.33h3.45Z" fill="#e5e6e7"/><path d="M107.5,17.52h-6.66v5.89h4.92v3.18h-4.92v6.9h6.66v3.18H97.39V14.33H107.5Z" fill="#e5e6e7"/><path d="M117.18,36.67h-3.45V17.52h-4.32V14.33h12.12v3.19h-4.35Z" fill="#e5e6e7"/><path d="M127,17.92l-2,4.62h-1.27l1.48-4.62h-1.48V14.33H127Z" fill="#e5e6e7"/><path d="M137.28,20.56c-.53-2.21-1.54-3.31-2.94-3.31a2.22,2.22,0,0,0-2.25,2.28,3.37,3.37,0,0,0,.94,2.24A15.59,15.59,0,0,0,136,24.21a18.53,18.53,0,0,1,3.31,3,6.48,6.48,0,0,1,1.44,4.08c0,3.39-2.47,5.7-6.12,5.7-3.82,0-6.07-2-6.77-6.3l3.32-1c.43,2.68,1.6,4,3.45,4a2.43,2.43,0,0,0,2.54-2.55c0-1.4-.7-2.31-3.31-4.35-3.12-2.44-3.25-2.58-4.09-3.65a6.08,6.08,0,0,1-1.24-3.72c0-3.21,2.41-5.49,5.83-5.49,3.18,0,5.32,1.91,6.26,5.59Z" fill="#e5e6e7"/><path d="M152.88,36.67h-3.45V14.33h5.72c2.25,0,3.65.44,4.69,1.44,1.21,1.14,1.78,2.82,1.78,5.2s-.57,4.08-1.78,5.22c-1,1-2.44,1.44-4.69,1.44h-2.27Zm1.5-12.22c2.78,0,3.65-.84,3.65-3.48s-.87-3.45-3.65-3.45h-1.5v6.93Z" fill="#e5e6e7"/><path d="M166.81,31.82l-.91,4.85h-3.38l4.29-22.34h4.72l4.52,22.34H172.5l-.94-4.85Zm2.34-13.2-1.81,10H171Z" fill="#e5e6e7"/><path d="M182.11,36.67h-3.45V14.33h3.45Z" fill="#e5e6e7"/><path d="M197.92,36.67h-3.08l-6-14.87V36.67h-3.28V14.33H189l5.62,13.9V14.33h3.29Z" fill="#e5e6e7"/><path d="M208.33,36.67h-3.45V17.52h-4.32V14.33h12.12v3.19h-4.35Z" fill="#e5e6e7"/><path d="M215.83,14.62v.31H215v2.24h-.35V14.93h-.85v-.31Z" fill="#e5e6e7"/><path d="M216.14,14.62h.49l.73,2.15.73-2.15h.49v2.55h-.33V15.41c0-.12,0-.25,0-.39l-.73,2.15h-.34L216.46,15v.36c0,.13,0,.23,0,.28v1.51h-.33Z" fill="#e5e6e7"/></g><g id="rect"><rect width="320" height="50" fill="none"/></g></g></svg>