<svg xmlns="http://www.w3.org/2000/svg" viewBox="0 0 320 50"><title>txt2</title><g id="Layer_2" data-name="Layer 2"><g id="rect"><rect width="320" height="50" fill="none"/></g><g id="_Text_Layer_3" data-name="&lt;Text Layer&gt; 3"><path d="M11.17,15.52l-.88-4.62-.83,4.62h-1L7.2,8.71h1L9,13.1l.82-4.39h.91l.9,4.39.69-4.39h1l-1.16,6.81Z" fill="#e6e7e8"/><path d="M15.19,15.52h-1V8.71h1Z" fill="#e6e7e8"/><path d="M18.26,15.52H17.21V9.68H15.89v-1h3.7v1H18.26Z" fill="#e6e7e8"/><path d="M21.33,12.52v3h-1V8.71h1v2.84h1.5V8.71h1.05v6.81H22.83v-3Z" fill="#e6e7e8"/><path d="M30.47,15.52h-.94L27.69,11v4.53h-1V8.71h1.06L29.47,13V8.71h1Z" fill="#e6e7e8"/><path d="M34.7,9.68h-2v1.8h1.5v1h-1.5v2.1h2v1H31.61V8.71H34.7Z" fill="#e6e7e8"/><path d="M39.17,15.52,38.3,10.9l-.83,4.62h-1L35.21,8.71h1L37,13.1l.82-4.39h.91l.9,4.39.68-4.39h1l-1.15,6.81Z" fill="#e6e7e8"/><path d="M9.46,28.59H7.81V17.94h2.73a3,3,0,0,1,2.24.69,3.21,3.21,0,0,1,.84,2.47,3.23,3.23,0,0,1-.84,2.49,3,3,0,0,1-2.24.69H9.46Zm.72-5.83c1.32,0,1.74-.4,1.74-1.66s-.42-1.64-1.74-1.64H9.46v3.3Z" fill="#e6e7e8"/><path d="M20.61,25.21a4.08,4.08,0,0,1-.6,2.52,2.68,2.68,0,0,1-2.3,1,2.68,2.68,0,0,1-2.3-1,4.08,4.08,0,0,1-.61-2.52V21.33a4,4,0,0,1,.61-2.52,2.66,2.66,0,0,1,2.3-1,2.66,2.66,0,0,1,2.3,1,4,4,0,0,1,.6,2.52Zm-4.16,0a3.11,3.11,0,0,0,.2,1.46,1.2,1.2,0,0,0,1.06.57,1.17,1.17,0,0,0,1.05-.57A2.73,2.73,0,0,0,19,25.17V21.36a2.69,2.69,0,0,0-.21-1.45,1.18,1.18,0,0,0-1.05-.58,1.21,1.21,0,0,0-1.06.58,3.06,3.06,0,0,0-.2,1.45Z" fill="#e6e7e8"/><path d="M23.93,28.59H22.29V17.94h2.57a2.92,2.92,0,0,1,2.1.64,3,3,0,0,1,1,2.41,2.83,2.83,0,0,1-1.43,2.76l1.56,4.84H26.33l-1.41-4.37h-1Zm.61-5.89c.7,0,1-.08,1.27-.34a1.72,1.72,0,0,0,.4-1.29,1.74,1.74,0,0,0-.4-1.28c-.25-.25-.57-.33-1.27-.33h-.61V22.7Z" fill="#e6e7e8"/><path d="M33.46,21.41v-.23c0-1.23-.43-1.85-1.25-1.85a1,1,0,0,0-1,.53A2.67,2.67,0,0,0,31,21.39v3.54a4.45,4.45,0,0,0,.18,1.58,1.1,1.1,0,0,0,1.05.69,1.19,1.19,0,0,0,1.19-1.05,6.82,6.82,0,0,0,.09-1.3h1.66v.37c0,2.32-1,3.53-2.92,3.53a2.64,2.64,0,0,1-2.38-1.18,4.94,4.94,0,0,1-.51-2.86v-3c0-1.7.13-2.29.62-3a2.67,2.67,0,0,1,2.25-1c1.82,0,2.89,1.22,2.89,3.31v.32Z" fill="#e6e7e8"/><path d="M38.34,23.9v4.69H36.7V17.94h1.64v4.44h2.35V17.94h1.64V28.59H40.69V23.9Z" fill="#e6e7e8"/><path d="M52.7,23.83a5.49,5.49,0,0,1-.84,2.65,2,2,0,0,0,1.08.67v1.6a3.15,3.15,0,0,1-2-1.05,2.74,2.74,0,0,1-2.09,1,2.5,2.5,0,0,1-2.42-2.62,4.66,4.66,0,0,1,1.42-3,5.53,5.53,0,0,1-.71-2.57,2.35,2.35,0,0,1,2.22-2.63,2,2,0,0,1,2,2.19,3.15,3.15,0,0,1-.64,1.83c-.25.37-.32.45-1.07,1.38a9.58,9.58,0,0,0,1.22,2.07,4.09,4.09,0,0,0,.43-1.64ZM48,25.88c0,.68.43,1.26,1,1.26a1.29,1.29,0,0,0,1-.55,7.9,7.9,0,0,1-1.44-2.13A2.42,2.42,0,0,0,48,25.88Zm1.81-6.12c0-.54-.23-.86-.62-.86s-.71.42-.71,1.09a4.53,4.53,0,0,0,.42,1.85A3.3,3.3,0,0,0,49.85,19.76Z" fill="#e6e7e8"/><path d="M58.59,28.59H57V17.94h2.73a3,3,0,0,1,2.23.69,3.18,3.18,0,0,1,.85,2.47,3.2,3.2,0,0,1-.85,2.49,3,3,0,0,1-2.23.69H58.59Zm.72-5.83c1.33,0,1.74-.4,1.74-1.66s-.41-1.64-1.74-1.64h-.72v3.3Z" fill="#e6e7e8"/><path d="M65.71,26.27l-.43,2.32H63.67l2-10.65H68l2.15,10.65H68.42L68,26.27ZM66.83,20,66,24.76H67.7Z" fill="#e6e7e8"/><path d="M74.41,28.59H72.76V19.46H70.7V17.94h5.78v1.52H74.41Z" fill="#e6e7e8"/><path d="M79.19,28.59H77.55V17.94h1.64Z" fill="#e6e7e8"/><path d="M86.68,25.21a4.08,4.08,0,0,1-.61,2.52,2.68,2.68,0,0,1-2.3,1,2.65,2.65,0,0,1-2.29-1,4,4,0,0,1-.61-2.52V21.33a4,4,0,0,1,.61-2.52,2.63,2.63,0,0,1,2.29-1,2.66,2.66,0,0,1,2.3,1,4,4,0,0,1,.61,2.52Zm-4.17,0a3,3,0,0,0,.21,1.46,1.26,1.26,0,0,0,2.11,0,2.87,2.87,0,0,0,.2-1.46V21.36a2.82,2.82,0,0,0-.2-1.45,1.25,1.25,0,0,0-2.11,0,2.9,2.9,0,0,0-.21,1.45Z" fill="#e6e7e8"/><path d="M9.47,39.34,9,41.65H7.43L9.47,31h2.25l2.16,10.64H12.19l-.45-2.31Zm1.12-6.29-.86,4.77h1.74Z" fill="#e6e7e8"/><path d="M21.08,41.65H19.61l-2.88-7.08v7.08H15.17V31h1.66l2.68,6.62V31h1.57Z" fill="#e6e7e8"/><path d="M25.85,41.65H24.2V32.52H22.14V31h5.78v1.51H25.85Z" fill="#e6e7e8"/><path d="M30.63,41.65H29V31h1.64Z" fill="#e6e7e8"/><path d="M33.89,38.27H31.61V37h2.28Z" fill="#e6e7e8"/><path d="M38.87,34c-.26-1.06-.74-1.58-1.41-1.58a1.05,1.05,0,0,0-1.07,1.08,1.58,1.58,0,0,0,.45,1.07,7.89,7.89,0,0,0,1.41,1.17,9,9,0,0,1,1.58,1.43,3.12,3.12,0,0,1,.68,2,2.68,2.68,0,0,1-2.92,2.71c-1.82,0-2.89-1-3.22-3L36,38.35c.21,1.28.76,1.91,1.64,1.91a1.15,1.15,0,0,0,1.21-1.21c0-.67-.33-1.1-1.58-2.07a8.64,8.64,0,0,1-1.94-1.74,2.86,2.86,0,0,1-.59-1.77,2.59,2.59,0,0,1,2.77-2.62c1.52,0,2.54.91,3,2.66Z" fill="#e6e7e8"/><path d="M43.46,40.14h3.28v1.51H41.82V31h1.64Z" fill="#e6e7e8"/><path d="M49.56,41.65H47.92V31h1.64Z" fill="#e6e7e8"/><path d="M53,41.65H51.35V31h2.73a3,3,0,0,1,2.23.68,3.24,3.24,0,0,1,.85,2.48,3.24,3.24,0,0,1-.85,2.49,3,3,0,0,1-2.23.68H53Zm.72-5.82c1.32,0,1.74-.4,1.74-1.66s-.42-1.65-1.74-1.65H53v3.31Z" fill="#e6e7e8"/><path d="M62.69,41.65H61.05V31h4.87v1.51H62.69V35.4h2.4v1.51h-2.4Z" fill="#e6e7e8"/><path d="M68.71,40.14H72v1.51H67.06V31h1.65Z" fill="#e6e7e8"/><path d="M78.86,38.27a4.06,4.06,0,0,1-.61,2.52,3.09,3.09,0,0,1-4.59,0,4,4,0,0,1-.61-2.52V34.39a4,4,0,0,1,.61-2.52,3.09,3.09,0,0,1,4.59,0,4.06,4.06,0,0,1,.61,2.52Zm-4.17,0a2.93,2.93,0,0,0,.21,1.45,1.26,1.26,0,0,0,2.11,0,2.82,2.82,0,0,0,.2-1.45V34.42A2.84,2.84,0,0,0,77,33a1.26,1.26,0,0,0-2.11,0,2.93,2.93,0,0,0-.21,1.45Z" fill="#e6e7e8"/><path d="M86.23,38.27a4,4,0,0,1-.61,2.52,3.09,3.09,0,0,1-4.59,0,4.06,4.06,0,0,1-.61-2.52V34.39A4.06,4.06,0,0,1,81,31.87a3.09,3.09,0,0,1,4.59,0,4,4,0,0,1,.61,2.52Zm-4.16,0a3,3,0,0,0,.2,1.45,1.26,1.26,0,0,0,2.11,0,2.69,2.69,0,0,0,.21-1.45V34.42A2.71,2.71,0,0,0,84.38,33a1.26,1.26,0,0,0-2.11,0,3,3,0,0,0-.2,1.45Z" fill="#e6e7e8"/><path d="M89.55,41.65H87.91V31h2.57a2.92,2.92,0,0,1,2.1.64,3,3,0,0,1,1,2.41,2.83,2.83,0,0,1-1.44,2.76l1.57,4.83H91.94l-1.4-4.37h-1Zm.61-5.89c.7,0,1-.08,1.27-.33a2.26,2.26,0,0,0,0-2.57c-.25-.26-.57-.34-1.27-.34h-.61v3.24Z" fill="#e6e7e8"/><path d="M99.32,41.65H97.67V31h2.73a3,3,0,0,1,2.24.68,3.24,3.24,0,0,1,.84,2.48,3.23,3.23,0,0,1-.84,2.49,3,3,0,0,1-2.24.68H99.32Zm.71-5.82c1.33,0,1.74-.4,1.74-1.66s-.41-1.65-1.74-1.65h-.71v3.31Z" fill="#e6e7e8"/><path d="M106.43,39.34,106,41.65h-1.61l2-10.64h2.25l2.16,10.64h-1.69l-.45-2.31Zm1.12-6.29-.86,4.77h1.74Z" fill="#e6e7e8"/><path d="M113.77,41.65h-1.64V31h1.64Z" fill="#e6e7e8"/><path d="M121.47,41.65H120l-2.88-7.08v7.08h-1.56V31h1.66l2.68,6.62V31h1.57Z" fill="#e6e7e8"/><path d="M126.24,41.65h-1.65V32.52h-2.06V31h5.78v1.51h-2.07Z" fill="#e6e7e8"/></g></g></svg>