<svg xmlns="http://www.w3.org/2000/svg" viewBox="0 0 320 50"><title>txt1</title><g id="Layer_2" data-name="Layer 2"><g id="rect"><rect width="320" height="50" fill="none"/></g><g id="TRIED_AND_TRUSTED_TRACTION" data-name="TRIED ANDTRUSTED TRACTION"><path d="M13.08,22.55H10.69V9.27h-3V7.07H16.1v2.2h-3Z" fill="#e6e7e8"/><path d="M20,22.55H17.65V7.07h3.74A4.28,4.28,0,0,1,24.45,8a4.35,4.35,0,0,1,1.39,3.5c0,1.95-.69,3.3-2.09,4l2.28,7H23.52l-2-6.36H20ZM20.92,14c1,0,1.49-.12,1.86-.49a2.6,2.6,0,0,0,.58-1.88,2.58,2.58,0,0,0-.58-1.86c-.37-.37-.84-.49-1.86-.49H20V14Z" fill="#e6e7e8"/><path d="M30.46,22.55H28.07V7.07h2.39Z" fill="#e6e7e8"/><path d="M40.07,9.27H35.45v4.09h3.41v2.2H35.45v4.79h4.62v2.2h-7V7.07h7Z" fill="#e6e7e8"/><path d="M42,7.07h3.78c3,0,4.48,1.56,4.48,4.85V17.7c0,3.3-1.44,4.85-4.48,4.85H42Zm3.57,13.28c1.7,0,2.3-.89,2.3-3.3V12.57c0-2.44-.6-3.3-2.3-3.3H44.34V20.35Z" fill="#e6e7e8"/><path d="M58.82,19.19l-.62,3.36H55.85l3-15.48h3.27l3.14,15.48H62.77l-.65-3.36ZM60.45,10,59.19,17h2.53Z" fill="#e6e7e8"/><path d="M75.69,22.55H73.56l-4.18-10.3v10.3H67.11V7.07h2.41l3.9,9.63V7.07h2.27Z" fill="#e6e7e8"/><path d="M78.27,7.07h3.78c3,0,4.48,1.56,4.48,4.85V17.7c0,3.3-1.44,4.85-4.48,4.85H78.27Zm3.57,13.28c1.7,0,2.3-.89,2.3-3.3V12.57c0-2.44-.6-3.3-2.3-3.3H80.66V20.35Z" fill="#e6e7e8"/><path d="M13.08,41.55H10.69V28.27h-3v-2.2H16.1v2.2h-3Z" fill="#e6e7e8"/><path d="M20,41.55H17.65V26.07h3.74a4.28,4.28,0,0,1,3.06.93,4.35,4.35,0,0,1,1.39,3.5c0,2-.69,3.3-2.09,4l2.28,7H23.52l-2-6.36H20ZM20.92,33c1,0,1.49-.12,1.86-.49a2.6,2.6,0,0,0,.58-1.88,2.58,2.58,0,0,0-.58-1.86c-.37-.37-.84-.49-1.86-.49H20V33Z" fill="#e6e7e8"/><path d="M36.26,26.07V36.56c0,1.95-.23,2.95-.88,3.83a3.84,3.84,0,0,1-3.2,1.39A3.88,3.88,0,0,1,29,40.39c-.65-.88-.88-1.88-.88-3.83V26.07h2.39V37c0,1.84.49,2.58,1.72,2.58s1.69-.74,1.69-2.58V26.07Z" fill="#e6e7e8"/><path d="M44.67,30.39c-.38-1.54-1.07-2.3-2.05-2.3a1.53,1.53,0,0,0-1.55,1.58,2.31,2.31,0,0,0,.65,1.55,11,11,0,0,0,2,1.7A13.21,13.21,0,0,1,46.06,35a4.58,4.58,0,0,1,1,2.84c0,2.34-1.72,3.94-4.25,3.94s-4.2-1.41-4.69-4.36l2.3-.67c.3,1.85,1.11,2.78,2.39,2.78a1.68,1.68,0,0,0,1.76-1.76c0-1-.49-1.6-2.3-3C40.12,33.06,40,33,39.44,32.22a4.24,4.24,0,0,1-.86-2.58,3.78,3.78,0,0,1,4-3.8c2.21,0,3.69,1.32,4.34,3.87Z" fill="#e6e7e8"/><path d="M53.32,41.55H50.93V28.27h-3v-2.2h8.4v2.2h-3Z" fill="#e6e7e8"/><path d="M64.9,28.27H60.28v4.09H63.7v2.2H60.28v4.78H64.9v2.21h-7V26.07h7Z" fill="#e6e7e8"/><path d="M66.78,26.07h3.79c3,0,4.47,1.56,4.47,4.85V36.7c0,3.3-1.43,4.85-4.47,4.85H66.78Zm3.58,13.27c1.69,0,2.29-.88,2.29-3.29V31.57c0-2.44-.6-3.3-2.29-3.3H69.17V39.34Z" fill="#e6e7e8"/><path d="M85.6,41.55H83.21V28.27h-3v-2.2h8.4v2.2h-3Z" fill="#e6e7e8"/><path d="M92.57,41.55H90.18V26.07h3.73A4.31,4.31,0,0,1,97,27a4.38,4.38,0,0,1,1.39,3.5,4.12,4.12,0,0,1-2.09,4l2.27,7h-2.5l-2-6.36H92.57ZM93.45,33c1,0,1.48-.12,1.86-.49a2.6,2.6,0,0,0,.58-1.88,2.58,2.58,0,0,0-.58-1.86c-.38-.37-.84-.49-1.86-.49h-.88V33Z" fill="#e6e7e8"/><path d="M103,38.18l-.63,3.37H100l3-15.48h3.27l3.14,15.48H107l-.65-3.37ZM104.64,29,103.38,36h2.53Z" fill="#e6e7e8"/><path d="M117.12,31.11v-.33c0-1.79-.63-2.69-1.81-2.69a1.51,1.51,0,0,0-1.41.76,3.88,3.88,0,0,0-.38,2.23v5.16a6.46,6.46,0,0,0,.26,2.29,1.59,1.59,0,0,0,1.53,1A1.72,1.72,0,0,0,117,38a9.47,9.47,0,0,0,.14-1.88h2.41v.53c0,3.37-1.46,5.13-4.25,5.13a3.8,3.8,0,0,1-3.45-1.72c-.58-1-.75-1.85-.75-4.15V31.57c0-2.46.19-3.32.91-4.29a3.87,3.87,0,0,1,3.27-1.44c2.65,0,4.2,1.76,4.2,4.8v.47Z" fill="#e6e7e8"/><path d="M126.19,41.55H123.8V28.27h-3v-2.2h8.4v2.2h-3Z" fill="#e6e7e8"/><path d="M133.16,41.55h-2.39V26.07h2.39Z" fill="#e6e7e8"/><path d="M144,36.63a5.89,5.89,0,0,1-.88,3.67,4.51,4.51,0,0,1-6.68,0,5.88,5.88,0,0,1-.89-3.67V31a5.9,5.9,0,0,1,.89-3.67,4.51,4.51,0,0,1,6.68,0A5.91,5.91,0,0,1,144,31ZM138,36.58a4.2,4.2,0,0,0,.31,2.12,1.83,1.83,0,0,0,3.06,0,4.1,4.1,0,0,0,.3-2.12V31a4.1,4.1,0,0,0-.3-2.12,1.83,1.83,0,0,0-3.06,0A4.2,4.2,0,0,0,138,31Z" fill="#e6e7e8"/><path d="M155.07,41.55h-2.14l-4.18-10.3v10.3h-2.27V26.07h2.41l3.9,9.63V26.07h2.28Z" fill="#e6e7e8"/></g></g></svg>