<svg xmlns="http://www.w3.org/2000/svg" viewBox="0 0 300 600"><title>txt1</title><g id="Layer_2" data-name="Layer 2"><g id="Layer_8" data-name="Layer 8"><polygon points="21.5 52.96 21 52.96 21 53.45 21 62.56 21 63.06 21.5 63.06 33.37 63.06 33.37 117.4 33.37 117.89 33.86 117.89 43.74 117.89 44.23 117.89 44.23 117.4 44.23 63.06 56.2 63.06 56.7 63.06 56.7 62.56 56.7 53.45 56.7 52.96 56.2 52.96 21.5 52.96" fill="#e5e6e7"/><path d="M79.5,52c-6.33,0-11.25,2.19-14.21,6.34-2.65,3.74-3.74,8.21-3.74,15.44v23.3c0,7.22,1.09,11.7,3.74,15.43,3,4.15,7.88,6.34,14.21,6.34s11.24-2.19,14.21-6.34c2.65-3.73,3.73-8.2,3.73-15.43V73.78c0-7.23-1.08-11.7-3.73-15.44C90.74,54.19,85.83,52,79.5,52Zm5.89,53.38a7,7,0,0,1-11.79,0c-.87-1.75-1.18-3.3-1.18-8.49V74c0-5.19.31-6.74,1.19-8.5a7,7,0,0,1,11.78,0c1,1.88,1.19,3.31,1.19,8.49V96.88C86.58,102.06,86.38,103.49,85.39,105.38Z" fill="#e5e6e7"/><path d="M121.68,53H105.56V117.9h16.12c12.79,0,19-6.72,19-20.54V73.49C140.68,59.67,134.47,53,121.68,53Zm8.14,23.21V94.68c0,9.68-2.36,13.12-9,13.12h-4.4V63.06h4.4C127.55,63.06,129.82,66.37,129.82,76.17Z" fill="#e5e6e7"/><path d="M172.5,53.35l-.08-.39H158.09l-.08.4-12.27,64-.11.59h10.69l.08-.41,2.51-13.5h12.8l2.6,13.5.08.41h11.18l-.12-.6ZM169.89,93.9h-9.26l4.59-25.42Z" fill="#e5e6e7"/><polygon points="211.76 52.96 211.4 52.96 211.29 53.3 202.95 78.87 194.88 53.3 194.77 52.96 194.41 52.96 183.48 52.96 182.77 52.96 183.01 53.62 197.36 92.56 197.36 117.4 197.36 117.89 197.86 117.89 207.73 117.89 208.23 117.89 208.23 117.4 208.23 92.56 222.96 53.63 223.21 52.96 222.5 52.96 211.76 52.96" fill="#e5e6e7"/><polygon points="137.8 164.53 142.02 151.3 137.89 151.3 137.89 140.55 147.69 140.55 147.69 151.11 141.95 164.53 137.8 164.53" fill="#e5e6e7"/><path d="M147.44,140.8v10.26l-5.66,13.23h-3.64l4.22-13.23h-4.22V140.8h9.3m.49-.5H137.65v11.25h4l-4,12.59-.21.64h4.65l.13-.3,5.66-13.23,0-.09V140.3Z" fill="#e5e6e7"/><polygon points="37.39 195.14 37.39 140.8 37.39 140.3 36.9 140.3 27.02 140.3 26.53 140.3 26.53 140.8 26.53 204.74 26.53 205.24 27.02 205.24 56.55 205.24 57.05 205.24 57.05 204.74 57.05 195.64 57.05 195.14 56.55 195.14 37.39 195.14" fill="#e5e6e7"/><polygon points="62.69 140.3 62.19 140.3 62.19 140.8 62.19 204.74 62.19 205.24 62.69 205.24 91.64 205.24 92.14 205.24 92.14 204.74 92.14 195.64 92.14 195.14 91.64 195.14 73.06 195.14 73.06 176.38 86.66 176.38 87.15 176.38 87.15 175.89 87.15 166.78 87.15 166.28 86.66 166.28 73.06 166.28 73.06 150.4 91.64 150.4 92.14 150.4 92.14 149.91 92.14 140.8 92.14 140.3 91.64 140.3 62.69 140.3" fill="#e5e6e7"/><polygon points="97.11 140.3 96.61 140.3 96.61 140.8 96.61 149.91 96.61 150.4 97.11 150.4 108.98 150.4 108.98 204.74 108.98 205.24 109.47 205.24 119.35 205.24 119.84 205.24 119.84 204.74 119.84 150.4 131.81 150.4 132.31 150.4 132.31 149.91 132.31 140.8 132.31 140.3 131.81 140.3 97.11 140.3" fill="#e5e6e7"/><path d="M174.88,168.69c-6.78-5.15-6.78-5.15-8.38-6.94a9.15,9.15,0,0,1-2.55-6.09,5.84,5.84,0,0,1,5.92-6c3.82,0,6.49,3.07,8,9.12l.12.5.5-.15,9.49-2.78.46-.13-.12-.46c-2.73-10.72-9.09-16.39-18.41-16.39a17.8,17.8,0,0,0-12.34,4.55,15.79,15.79,0,0,0-4.83,11.67,17.9,17.9,0,0,0,3.65,10.95c2.42,3.09,2.81,3.49,11.78,10.53,7.39,5.78,9.3,8.26,9.3,12.08a6.43,6.43,0,0,1-6.79,6.79c-5,0-8.19-3.73-9.39-11.09l-.09-.55-.53.15-9.49,2.78-.43.13.08.43c2.05,12.41,8.54,18.44,19.85,18.44,5.25,0,9.76-1.61,13-4.65a16.09,16.09,0,0,0,5-12.14,19.27,19.27,0,0,0-4.23-12C182.31,174.78,180.35,173,174.88,168.69Z" fill="#e5e6e7"/><path d="M43.42,226.86H26.53v64.93H37.39V265.91h6c6.56,0,10.68-1.28,13.76-4.26,3.57-3.37,5.24-8.24,5.24-15.32,0-6.91-1.72-11.89-5.24-15.22C54.1,228.13,50,226.86,43.42,226.86Zm7.75,19.47c0,7.35-2.23,9.48-10,9.48H37.39V237h3.82C48.84,237,51.17,239.15,51.17,246.33Z" fill="#e5e6e7"/><path d="M90.79,227.25l-.08-.39H76.38l-.08.4L64,291.21l-.12.58h10.7l.07-.4,2.52-13.5H90l2.61,13.5.07.4h11.18l-.12-.59Zm-2.62,40.54H78.91l4.59-25.41Z" fill="#e5e6e7"/><polygon points="110.05 226.86 109.56 226.86 109.56 227.35 109.56 291.3 109.56 291.79 110.05 291.79 119.93 291.79 120.42 291.79 120.42 291.3 120.42 227.35 120.42 226.86 119.93 226.86 110.05 226.86" fill="#e5e6e7"/><polygon points="156.79 226.86 156.29 226.86 156.29 227.35 156.29 264.6 141.14 227.16 141.01 226.86 140.68 226.86 130.71 226.86 130.22 226.86 130.22 227.35 130.22 291.3 130.22 291.79 130.71 291.79 140.11 291.79 140.6 291.79 140.6 291.3 140.6 251.27 156.9 291.48 157.03 291.79 157.36 291.79 166.18 291.79 166.68 291.79 166.68 291.3 166.68 227.35 166.68 226.86 166.18 226.86 156.79 226.86" fill="#e5e6e7"/><polygon points="208.79 236.95 208.79 236.46 208.79 227.35 208.79 226.86 208.29 226.86 173.59 226.86 173.09 226.86 173.09 227.35 173.09 236.46 173.09 236.95 173.59 236.95 185.46 236.95 185.46 291.3 185.46 291.79 185.96 291.79 195.83 291.79 196.33 291.79 196.33 291.3 196.33 236.95 208.29 236.95 208.79 236.95" fill="#e5e6e7"/><path d="M219,226.78v1.14h-3.21v8.37h-1.3v-8.37h-3.2v-1.14Z" fill="#e5e6e7"/><path d="M220.13,226.78H222l2.73,8,2.71-8h1.84v9.51H228v-5.61c0-.19,0-.52,0-1s0-.93,0-1.45l-2.71,8h-1.28l-2.74-8v.29c0,.24,0,.59,0,1.07s0,.83,0,1.05v5.61h-1.23Z" fill="#e5e6e7"/></g><g id="rect"><rect width="300" height="600" fill="none"/></g></g></svg>