<svg xmlns="http://www.w3.org/2000/svg" viewBox="0 0 300 600"><title>txt2</title><g id="Layer_2" data-name="Layer 2"><g id="rect"><rect width="300" height="600" fill="none"/></g><g id="WITH_NEW_PORCH_PATIO_ANTI-SLIP_FLOOR_PAINT" data-name="WITH NEW PORCH &amp; PATIO ANTI-SLIP FLOOR PAINT"><path d="M30.62,72.52l-2.51-13.2-2.37,13.2h-2.8L19.29,53h2.92L24.43,65.6,26.77,53h2.6L31.94,65.6,33.89,53h2.84L33.42,72.52Z" fill="#e6e7e8"/><path d="M42.1,72.52h-3V53h3Z" fill="#e6e7e8"/><path d="M50.86,72.52h-3V55.81H44.09V53H54.66v2.77h-3.8Z" fill="#e6e7e8"/><path d="M59.63,63.93v8.59h-3V53h3v8.12h4.29V53h3V72.52h-3V63.93Z" fill="#e6e7e8"/><path d="M85.74,72.52H83.05l-5.26-13v13H74.93V53h3l4.9,12.12V53h2.87Z" fill="#e6e7e8"/><path d="M97.8,55.81H92V61h4.29v2.78H92v6H97.8v2.78H89V53H97.8Z" fill="#e6e7e8"/><path d="M110.59,72.52l-2.51-13.2-2.36,13.2h-2.81L99.26,53h2.92L104.4,65.6,106.74,53h2.6l2.57,12.56,2-12.56h2.84l-3.3,19.48Z" fill="#e6e7e8"/><path d="M28,121.27H21.78V81H32.1c4,0,6.58.78,8.45,2.59,2.17,2,3.19,5.07,3.19,9.35s-1,7.36-3.19,9.41c-1.87,1.81-4.41,2.6-8.45,2.6H28Zm2.71-22c5,0,6.58-1.51,6.58-6.28s-1.57-6.21-6.58-6.21H28V99.25Z" fill="#e6e7e8"/><path d="M70.17,108.48c0,4.52-.66,7.24-2.29,9.53-1.81,2.53-4.83,3.86-8.69,3.86s-6.88-1.33-8.69-3.86c-1.63-2.29-2.29-5-2.29-9.53V93.82c0-4.53.66-7.24,2.29-9.54,1.81-2.53,4.83-3.86,8.69-3.86s6.88,1.33,8.69,3.86c1.63,2.3,2.29,5,2.29,9.54Zm-15.75-.12c0,3.19.18,4.28.79,5.49a4.73,4.73,0,0,0,8,0c.66-1.27.79-2.24.79-5.49V93.94c0-3.26-.13-4.23-.79-5.49a4.72,4.72,0,0,0-8,0c-.61,1.2-.79,2.29-.79,5.49Z" fill="#e6e7e8"/><path d="M82.72,121.27H76.5V81h9.72c3.68,0,6,.72,8,2.41,2.42,2,3.62,5.13,3.62,9.11,0,5.07-1.81,8.57-5.43,10.44l5.91,18.28H91.77l-5.31-16.53H82.72ZM85,99c2.66,0,3.86-.3,4.83-1.26s1.51-2.66,1.51-4.89-.49-3.8-1.51-4.83S87.67,86.76,85,86.76H82.72V99Z" fill="#e6e7e8"/><path d="M118.74,94.12v-.85c0-4.64-1.63-7-4.71-7a3.93,3.93,0,0,0-3.68,2c-.78,1.32-1,2.53-1,5.79v13.39a17.27,17.27,0,0,0,.66,6,4.18,4.18,0,0,0,4,2.6c2.29,0,3.8-1.33,4.47-4a22.89,22.89,0,0,0,.36-4.89h6.27v1.39c0,8.75-3.8,13.33-11,13.33-4,0-7.24-1.57-9-4.46-1.51-2.48-1.93-4.83-1.93-10.8V95.32c0-6.39.48-8.62,2.35-11.16s4.77-3.74,8.51-3.74C120.91,80.42,125,85,125,92.91v1.21Z" fill="#e6e7e8"/><path d="M137.2,103.53v17.74H131V81h6.22V97.8h8.87V81h6.21v40.24h-6.21V103.53Z" fill="#e6e7e8"/><path d="M191.5,103.29a20.86,20.86,0,0,1-3.2,10,7.51,7.51,0,0,0,4.1,2.54v6a12,12,0,0,1-7.6-4c-2.77,2.77-5,3.8-7.9,3.8-5.13,0-9.17-4.34-9.17-9.89,0-3.69,1.57-7.06,5.37-11.53-1.93-4-2.66-6.64-2.66-9.71,0-5.85,3.44-10,8.39-10,4.34,0,7.48,3.44,7.48,8.27a12.18,12.18,0,0,1-2.41,6.94c-1,1.38-1.21,1.69-4.05,5.19a36.45,36.45,0,0,0,4.59,7.84,14.79,14.79,0,0,0,1.63-6.22ZM173.88,111c0,2.6,1.63,4.77,3.62,4.77a5,5,0,0,0,3.74-2,29.87,29.87,0,0,1-5.43-8.09A9,9,0,0,0,173.88,111ZM180.7,87.9c0-2.05-.85-3.25-2.35-3.25s-2.66,1.56-2.66,4.1a17.15,17.15,0,0,0,1.57,7C179.49,93.15,180.7,90.44,180.7,87.9Z" fill="#e6e7e8"/><path d="M28,170H21.78V129.78H32.1c4,0,6.58.78,8.45,2.59,2.17,2,3.19,5.07,3.19,9.35s-1,7.36-3.19,9.41c-1.87,1.81-4.41,2.6-8.45,2.6H28Zm2.71-22c5,0,6.58-1.51,6.58-6.28s-1.57-6.21-6.58-6.21H28V148Z" fill="#e6e7e8"/><path d="M54.91,161.27,53.28,170h-6.1l7.73-40.24h8.5L71.56,170h-6.4l-1.69-8.75Zm4.22-23.77-3.26,18h6.58Z" fill="#e6e7e8"/><path d="M87.79,170H81.57V135.51H73.79v-5.73H95.63v5.73H87.79Z" fill="#e6e7e8"/><path d="M105.89,170H99.67V129.78h6.22Z" fill="#e6e7e8"/><path d="M134.18,157.23c0,4.52-.66,7.24-2.29,9.53-1.81,2.53-4.83,3.86-8.69,3.86s-6.88-1.33-8.69-3.86c-1.63-2.29-2.29-5-2.29-9.53V142.57c0-4.53.66-7.24,2.29-9.54,1.81-2.53,4.83-3.86,8.69-3.86s6.88,1.33,8.69,3.86c1.63,2.3,2.29,5,2.29,9.54Zm-15.74-.12c0,3.19.18,4.28.78,5.49a4.73,4.73,0,0,0,8,0c.67-1.27.79-2.24.79-5.49V142.69c0-3.26-.12-4.23-.79-5.49a4.72,4.72,0,0,0-8,0c-.6,1.2-.78,2.29-.78,5.49Z" fill="#e6e7e8"/><path d="M28.06,210l-1.63,8.75h-6.1l7.73-40.24h8.5l8.15,40.24h-6.4L36.62,210Zm4.22-23.77-3.26,18H35.6Z" fill="#e6e7e8"/><path d="M71.92,218.77H66.37L55.51,192v26.79H49.6V178.53h6.27l10.14,25v-25h5.91Z" fill="#e6e7e8"/><path d="M90,218.77H83.74V184.26H76v-5.73H97.8v5.73H90Z" fill="#e6e7e8"/><path d="M108.06,218.77h-6.22V178.53h6.22Z" fill="#e6e7e8"/><path d="M120.37,206h-8.63v-5h8.63Z" fill="#e6e7e8"/><path d="M139.19,189.75c-1-4-2.78-6-5.31-6a4,4,0,0,0-4,4.11,6,6,0,0,0,1.69,4c1,1.15,1,1.15,5.31,4.4a34.18,34.18,0,0,1,6,5.43,11.75,11.75,0,0,1,2.59,7.36c0,6.1-4.46,10.26-11,10.26-6.88,0-10.92-3.68-12.19-11.34l6-1.75c.78,4.83,2.89,7.24,6.21,7.24a4.37,4.37,0,0,0,4.59-4.59c0-2.53-1.27-4.16-6-7.84-5.61-4.4-5.85-4.65-7.36-6.58a10.94,10.94,0,0,1-2.23-6.69c0-5.8,4.35-9.9,10.5-9.9,5.73,0,9.59,3.44,11.28,10.08Z" fill="#e6e7e8"/><path d="M156.56,213h12.37v5.73H150.35V178.53h6.21Z" fill="#e6e7e8"/><path d="M179.61,218.77H173.4V178.53h6.21Z" fill="#e6e7e8"/><path d="M192.58,218.77h-6.21V178.53h10.31c4,0,6.58.78,8.45,2.59,2.17,2,3.2,5.07,3.2,9.35s-1,7.36-3.2,9.41c-1.87,1.81-4.4,2.6-8.45,2.6h-4.1Zm2.72-22c5,0,6.57-1.51,6.57-6.28s-1.57-6.21-6.57-6.21h-2.72v12.49Z" fill="#e6e7e8"/><path d="M28,267.52H21.78V227.28h18.4V233H28v10.86h9v5.73H28Z" fill="#e6e7e8"/><path d="M50.74,261.79H63.11v5.73H44.53V227.28h6.21Z" fill="#e6e7e8"/><path d="M89.11,254.73c0,4.52-.66,7.24-2.29,9.53-1.81,2.53-4.83,3.86-8.69,3.86s-6.88-1.33-8.69-3.86c-1.62-2.29-2.29-5-2.29-9.53V240.07c0-4.53.67-7.24,2.29-9.54,1.81-2.53,4.83-3.86,8.69-3.86S85,228,86.82,230.53c1.63,2.3,2.29,5,2.29,9.54Zm-15.74-.12c0,3.19.18,4.28.78,5.49a4.73,4.73,0,0,0,8,0c.67-1.27.79-2.24.79-5.49V240.19c0-3.26-.12-4.23-.79-5.49a4.72,4.72,0,0,0-8,0c-.6,1.2-.78,2.29-.78,5.49Z" fill="#e6e7e8"/><path d="M117,254.73c0,4.52-.67,7.24-2.3,9.53-1.81,2.53-4.82,3.86-8.68,3.86s-6.88-1.33-8.69-3.86c-1.63-2.29-2.29-5-2.29-9.53V240.07c0-4.53.66-7.24,2.29-9.54,1.81-2.53,4.83-3.86,8.69-3.86s6.87,1.33,8.68,3.86c1.63,2.3,2.3,5,2.3,9.54Zm-15.75-.12c0,3.19.18,4.28.78,5.49a4.74,4.74,0,0,0,8,0c.66-1.27.78-2.24.78-5.49V240.19c0-3.26-.12-4.23-.78-5.49a4.73,4.73,0,0,0-8,0c-.6,1.2-.78,2.29-.78,5.49Z" fill="#e6e7e8"/><path d="M129.54,267.52h-6.22V227.28H133c3.68,0,6,.72,8,2.41,2.41,2.05,3.62,5.13,3.62,9.11,0,5.07-1.81,8.57-5.43,10.44l5.91,18.28h-6.51L133.28,251h-3.74Zm2.29-22.27c2.65,0,3.86-.3,4.83-1.26s1.5-2.66,1.5-4.89-.48-3.8-1.5-4.83-2.18-1.26-4.83-1.26h-2.29v12.24Z" fill="#e6e7e8"/><path d="M166.46,267.52h-6.21V227.28h10.31c4.05,0,6.58.78,8.45,2.59,2.17,2,3.2,5.07,3.2,9.35s-1,7.36-3.2,9.41c-1.87,1.81-4.4,2.6-8.45,2.6h-4.1Zm2.71-22c5,0,6.58-1.51,6.58-6.28s-1.57-6.21-6.58-6.21h-2.71V245.5Z" fill="#e6e7e8"/><path d="M193.37,258.77l-1.63,8.75h-6.09l7.72-40.24h8.51L210,267.52h-6.39l-1.69-8.75ZM197.59,235l-3.26,18h6.58Z" fill="#e6e7e8"/><path d="M221.12,267.52h-6.21V227.28h6.21Z" fill="#e6e7e8"/><path d="M250.2,267.52h-5.55l-10.86-26.79v26.79h-5.91V227.28h6.27l10.14,25v-25h5.91Z" fill="#e6e7e8"/><path d="M268.24,267.52H262V233h-7.79v-5.73h21.84V233h-7.84Z" fill="#e6e7e8"/></g></g></svg>