<svg xmlns="http://www.w3.org/2000/svg" viewBox="0 0 300 600"><title>txt1</title><g id="Layer_2" data-name="Layer 2"><g id="rect"><rect width="300" height="600" fill="none"/></g><g id="TRIED_AND_TRUSTED_TRACTION" data-name="TRIEDAND TRUSTEDTRACTION"><path d="M36.11,102.52h-7.5V60.86H19.22V53.94H45.58v6.92H36.11Z" fill="#e6e7e8"/><path d="M58,102.52h-7.5V53.94H62.19c4.44,0,7.28.87,9.61,2.91,2.91,2.48,4.37,6.19,4.37,11,0,6.12-2.18,10.34-6.55,12.6l7.13,22.07H68.89l-6.41-20H58Zm2.77-26.88c3.21,0,4.66-.36,5.83-1.53s1.82-3.2,1.82-5.9-.58-4.58-1.82-5.82-2.62-1.53-5.83-1.53H58V75.64Z" fill="#e6e7e8"/><path d="M90.67,102.52h-7.5V53.94h7.5Z" fill="#e6e7e8"/><path d="M120.82,60.86H106.33V73.68H117V80.6h-10.7v15h14.49v6.92h-22V53.94h22Z" fill="#e6e7e8"/><path d="M126.72,53.94h11.87c9.54,0,14.06,4.88,14.06,15.22V87.3c0,10.34-4.52,15.22-14.06,15.22H126.72ZM137.94,95.6c5.31,0,7.21-2.77,7.21-10.34V71.2c0-7.65-1.9-10.34-7.21-10.34h-3.72V95.6Z" fill="#e6e7e8"/><path d="M30,161.52l-2,10.56H20.67L30,123.51H40.26l9.84,48.57H42.38l-2-10.56Zm5.1-28.69L31.16,154.6H39.1Z" fill="#e6e7e8"/><path d="M82.94,172.08h-6.7L63.13,139.75v32.33H56V123.51h7.57l12.24,30.22V123.51h7.13Z" fill="#e6e7e8"/><path d="M91,123.51H102.9c9.54,0,14.06,4.87,14.06,15.22v18.13c0,10.34-4.52,15.22-14.06,15.22H91Zm11.22,41.65c5.31,0,7.21-2.76,7.21-10.34v-14c0-7.65-1.9-10.35-7.21-10.35H98.53v34.74Z" fill="#e6e7e8"/><path d="M36.11,241.65h-7.5V200H19.22v-6.92H45.58V200H36.11Z" fill="#e6e7e8"/><path d="M58,241.65h-7.5V193.07H62.19c4.44,0,7.28.87,9.61,2.91,2.91,2.48,4.37,6.19,4.37,11,0,6.12-2.18,10.34-6.55,12.6l7.13,22.07H68.89l-6.41-20H58Zm2.77-26.88c3.21,0,4.66-.36,5.83-1.53s1.82-3.2,1.82-5.89-.58-4.59-1.82-5.83S63.94,200,60.73,200H58v14.78Z" fill="#e6e7e8"/><path d="M108.88,193.07V226c0,6.12-.73,9.25-2.77,12s-5.68,4.37-10,4.37-8-1.53-10.13-4.37-2.76-5.9-2.76-12V193.07h7.5v34.16c0,5.75,1.53,8.08,5.39,8.08s5.31-2.33,5.31-8.08V193.07Z" fill="#e6e7e8"/><path d="M135.24,206.62c-1.16-4.81-3.35-7.21-6.41-7.21a4.81,4.81,0,0,0-4.88,5,7.3,7.3,0,0,0,2,4.88c1.24,1.38,1.24,1.38,6.41,5.32,4.08,3.2,5.61,4.58,7.21,6.55a14.17,14.17,0,0,1,3.13,8.89c0,7.35-5.39,12.38-13.32,12.38-8.31,0-13.19-4.45-14.72-13.7l7.21-2.11c1,5.83,3.5,8.74,7.51,8.74a5.28,5.28,0,0,0,5.53-5.53c0-3.06-1.53-5-7.21-9.47-6.77-5.32-7.06-5.61-8.88-7.94a13.17,13.17,0,0,1-2.7-8.08c0-7,5.24-11.95,12.67-11.95,6.92,0,11.58,4.15,13.62,12.16Z" fill="#e6e7e8"/><path d="M162.41,241.65h-7.5V200h-9.4v-6.92h26.37V200h-9.47Z" fill="#e6e7e8"/><path d="M198.76,200h-14.5v12.82H195v6.92H184.26v15h14.5v6.92h-22V193.07h22Z" fill="#e6e7e8"/><path d="M204.66,193.07h11.87c9.54,0,14.05,4.88,14.05,15.22v18.14c0,10.34-4.51,15.22-14.05,15.22H204.66Zm11.21,41.66c5.32,0,7.21-2.77,7.21-10.34V210.33c0-7.65-1.89-10.34-7.21-10.34h-3.71v34.74Z" fill="#e6e7e8"/><path d="M36.11,311.21h-7.5V269.56H19.22v-6.92H45.58v6.92H36.11Z" fill="#e6e7e8"/><path d="M58,311.21h-7.5V262.64H62.19c4.44,0,7.28.87,9.61,2.91,2.91,2.48,4.37,6.19,4.37,11,0,6.11-2.18,10.34-6.55,12.6l7.13,22.06H68.89l-6.41-19.95H58Zm2.77-26.87c3.21,0,4.66-.36,5.83-1.53s1.82-3.2,1.82-5.9-.58-4.59-1.82-5.83-2.62-1.52-5.83-1.52H58v14.78Z" fill="#e6e7e8"/><path d="M90.74,300.65l-2,10.56H81.42l9.32-48.57H101l9.83,48.57h-7.72l-2-10.56ZM95.84,272l-3.93,21.77h7.93Z" fill="#e6e7e8"/><path d="M135,278.44v-1c0-5.61-2-8.45-5.68-8.45a4.75,4.75,0,0,0-4.44,2.41c-1,1.6-1.17,3.05-1.17,7v16.17c0,3.71.22,5.6.81,7.21a5,5,0,0,0,4.8,3.13c2.77,0,4.59-1.6,5.39-4.81a27.26,27.26,0,0,0,.44-5.9h7.57v1.68c0,10.56-4.58,16.09-13.32,16.09-4.88,0-8.74-1.89-10.86-5.39-1.82-3-2.33-5.82-2.33-13V279.9c0-7.72.59-10.42,2.84-13.48s5.76-4.51,10.27-4.51c8.31,0,13.18,5.53,13.18,15.07v1.46Z" fill="#e6e7e8"/><path d="M163.5,311.21H156V269.56h-9.39v-6.92H173v6.92H163.5Z" fill="#e6e7e8"/><path d="M185.35,311.21h-7.5V262.64h7.5Z" fill="#e6e7e8"/><path d="M219.51,295.77c0,5.47-.8,8.74-2.77,11.51-2.18,3.06-5.82,4.66-10.48,4.66s-8.31-1.6-10.49-4.66c-2-2.77-2.77-6-2.77-11.51V278.08c0-5.47.8-8.74,2.77-11.51,2.18-3.06,5.83-4.66,10.49-4.66s8.3,1.6,10.48,4.66c2,2.77,2.77,6,2.77,11.51Zm-19-.14c0,3.86.22,5.17.95,6.63a5.72,5.72,0,0,0,9.61,0c.8-1.53.95-2.7.95-6.63V278.22c0-3.93-.15-5.1-.95-6.63a5.72,5.72,0,0,0-9.61,0c-.73,1.46-.95,2.77-.95,6.63Z" fill="#e6e7e8"/><path d="M254.11,311.21h-6.7L234.3,278.88v32.33h-7.14V262.64h7.58L247,292.86V262.64h7.14Z" fill="#e6e7e8"/></g></g></svg>