<svg xmlns="http://www.w3.org/2000/svg" viewBox="0 0 85 25"><title>cta_txt</title><g id="Layer_2" data-name="Layer 2"><g id="Layer_10" data-name="Layer 10"><rect width="85" height="25" fill="none"/></g><g id="SHOP_NOW" data-name="SHOP NOW"><path d="M13.07,10.14c-.26-1.06-.74-1.59-1.41-1.59a1.06,1.06,0,0,0-1.07,1.09A1.62,1.62,0,0,0,11,10.72a7.63,7.63,0,0,0,1.41,1.16A9.33,9.33,0,0,1,14,13.32a3.16,3.16,0,0,1,.69,2A2.69,2.69,0,0,1,11.79,18c-1.82,0-2.9-1-3.23-3l1.58-.47c.21,1.29.77,1.93,1.65,1.93A1.17,1.17,0,0,0,13,15.23c0-.67-.34-1.11-1.59-2.08A8.24,8.24,0,0,1,9.47,11.4a2.84,2.84,0,0,1-.59-1.77A2.6,2.6,0,0,1,11.66,7c1.52,0,2.55.91,3,2.68Z" fill="#494747"/><path d="M17.92,13.13v4.71H16.27V7.16h1.65v4.45h2.35V7.16h1.65V17.84H20.27V13.13Z" fill="#494747"/><path d="M29.65,14.44A4.05,4.05,0,0,1,29,17a2.67,2.67,0,0,1-2.31,1,2.66,2.66,0,0,1-2.3-1,4.05,4.05,0,0,1-.61-2.53V10.56A4.05,4.05,0,0,1,24.43,8a2.66,2.66,0,0,1,2.3-1A2.67,2.67,0,0,1,29,8a4.05,4.05,0,0,1,.61,2.53Zm-4.18,0a3,3,0,0,0,.21,1.46,1.25,1.25,0,0,0,2.11,0A2.73,2.73,0,0,0,28,14.41V10.59a2.73,2.73,0,0,0-.21-1.46,1.25,1.25,0,0,0-2.11,0,3,3,0,0,0-.21,1.46Z" fill="#494747"/><path d="M33.21,17.84H31.56V7.16H34.3a3,3,0,0,1,2.24.69,3.19,3.19,0,0,1,.85,2.48,3.24,3.24,0,0,1-.85,2.5,3,3,0,0,1-2.24.69H33.21ZM33.93,12c1.33,0,1.75-.4,1.75-1.67s-.42-1.65-1.75-1.65h-.72V12Z" fill="#494747"/><path d="M47.7,17.84H46.22l-2.88-7.11v7.11H41.77V7.16h1.67l2.69,6.64V7.16H47.7Z" fill="#494747"/><path d="M55.42,14.44A4,4,0,0,1,54.81,17a3.08,3.08,0,0,1-4.6,0,4,4,0,0,1-.61-2.53V10.56A4,4,0,0,1,50.21,8a3.08,3.08,0,0,1,4.6,0,4,4,0,0,1,.61,2.53Zm-4.17,0a3,3,0,0,0,.2,1.46,1.26,1.26,0,0,0,2.12,0,2.87,2.87,0,0,0,.2-1.46V10.59a2.87,2.87,0,0,0-.2-1.46,1.26,1.26,0,0,0-2.12,0,3,3,0,0,0-.2,1.46Z" fill="#494747"/><path d="M63,17.84,61.63,10.6l-1.3,7.24H58.8l-2-10.68h1.6L59.61,14l1.28-6.88h1.43L63.73,14,64.8,7.16h1.55L64.54,17.84Z" fill="#494747"/></g><g id="Layer_9" data-name="Layer 9"><g id="chevrons"><polyline points="71.75 7.5 75.78 12.61 71.75 17.5" fill="none" stroke="#494747" stroke-miterlimit="10" stroke-width="1.5"/></g></g></g></svg>