<svg xmlns="http://www.w3.org/2000/svg" viewBox="0 0 160 600"><title>txt</title><g id="Layer_2" data-name="Layer 2"><g id="TRIED_AND_TRUSTED_TRACTION" data-name="TRIEDAND TRUSTEDTRACTION"><path d="M18.5,70.51H13.93V45.14H8.21V40.93H24.27v4.21H18.5Z" fill="#e6e7e8"/><path d="M31.81,70.51H27.24V40.93h7.14c2.7,0,4.43.53,5.85,1.77,1.77,1.51,2.66,3.77,2.66,6.7,0,3.72-1.33,6.3-4,7.67l4.35,13.44H38.46L34.55,58.36H31.81Zm1.68-16.37c1.95,0,2.84-.22,3.55-.93a4.92,4.92,0,0,0,1.11-3.59A4.89,4.89,0,0,0,37,46.07c-.71-.71-1.6-.93-3.55-.93H31.81v9Z" fill="#e6e7e8"/><path d="M51.72,70.51H47.15V40.93h4.57Z" fill="#e6e7e8"/><path d="M70.07,45.14H61.25V53h6.52v4.21H61.25v9.13h8.82v4.22H56.68V40.93H70.07Z" fill="#e6e7e8"/><path d="M73.66,40.93h7.23c5.81,0,8.56,3,8.56,9.27v11c0,6.29-2.75,9.27-8.56,9.27H73.66Zm6.83,25.36c3.24,0,4.39-1.68,4.39-6.29V51.44c0-4.66-1.15-6.3-4.39-6.3H78.23V66.29Z" fill="#e6e7e8"/><path d="M14.78,106.43l-1.2,6.43H9.1l5.68-29.58H21l6,29.58h-4.7l-1.25-6.43ZM17.88,89l-2.39,13.26h4.83Z" fill="#e6e7e8"/><path d="M47,112.86H42.93L35,93.17v19.69H30.61V83.28h4.61l7.45,18.4V83.28H47Z" fill="#e6e7e8"/><path d="M51.94,83.28h7.23c5.8,0,8.55,3,8.55,9.27v11c0,6.3-2.75,9.27-8.55,9.27H51.94Zm6.83,25.37c3.23,0,4.39-1.69,4.39-6.3V93.79c0-4.66-1.16-6.3-4.39-6.3H56.5v21.16Z" fill="#e6e7e8"/><path d="M18.5,155.21H13.93V129.85H8.21v-4.22H24.27v4.22H18.5Z" fill="#e6e7e8"/><path d="M31.81,155.21H27.24V125.63h7.14c2.7,0,4.43.54,5.85,1.78,1.77,1.5,2.66,3.77,2.66,6.69,0,3.73-1.33,6.3-4,7.67l4.35,13.44H38.46l-3.91-12.15H31.81Zm1.68-16.36c1.95,0,2.84-.22,3.55-.93a5,5,0,0,0,1.11-3.6A4.87,4.87,0,0,0,37,130.78c-.71-.71-1.6-.93-3.55-.93H31.81v9Z" fill="#e6e7e8"/><path d="M62.8,125.63v20.05c0,3.72-.44,5.63-1.68,7.31A7.33,7.33,0,0,1,55,155.65,7.37,7.37,0,0,1,48.83,153c-1.24-1.68-1.68-3.59-1.68-7.31V125.63h4.57v20.8c0,3.5.93,4.92,3.28,4.92s3.23-1.42,3.23-4.92v-20.8Z" fill="#e6e7e8"/><path d="M78.85,133.88c-.71-2.93-2-4.39-3.9-4.39a2.93,2.93,0,0,0-3,3,4.44,4.44,0,0,0,1.24,3c.76.84.76.84,3.9,3.23a24.46,24.46,0,0,1,4.39,4,8.6,8.6,0,0,1,1.91,5.4c0,4.48-3.28,7.54-8.11,7.54-5.06,0-8-2.7-9-8.33L70.74,146c.58,3.55,2.13,5.32,4.57,5.32A3.21,3.21,0,0,0,78.68,148c0-1.86-.93-3.06-4.39-5.76-4.13-3.24-4.3-3.42-5.41-4.84a8,8,0,0,1-1.64-4.92c0-4.25,3.19-7.27,7.71-7.27,4.21,0,7,2.53,8.29,7.41Z" fill="#e6e7e8"/><path d="M95.39,155.21H90.83V129.85H85.11v-4.22h16v4.22H95.39Z" fill="#e6e7e8"/><path d="M117.52,129.85H108.7v7.8h6.52v4.21H108.7V151h8.82v4.21H104.13V125.63h13.39Z" fill="#e6e7e8"/><path d="M121.11,125.63h7.23c5.81,0,8.56,3,8.56,9.27v11c0,6.3-2.75,9.27-8.56,9.27h-7.23ZM127.94,151c3.24,0,4.39-1.69,4.39-6.3v-8.56c0-4.65-1.15-6.29-4.39-6.29h-2.26V151Z" fill="#e6e7e8"/><path d="M18.5,197.56H13.93V172.2H8.21V168H24.27v4.21H18.5Z" fill="#e6e7e8"/><path d="M31.81,197.56H27.24V168h7.14c2.7,0,4.43.53,5.85,1.77,1.77,1.51,2.66,3.77,2.66,6.69,0,3.73-1.33,6.3-4,7.68l4.35,13.43H38.46l-3.91-12.15H31.81Zm1.68-16.36c1.95,0,2.84-.22,3.55-.93a4.94,4.94,0,0,0,1.11-3.59A4.88,4.88,0,0,0,37,173.13c-.71-.71-1.6-.93-3.55-.93H31.81v9Z" fill="#e6e7e8"/><path d="M51.76,191.13l-1.2,6.43H46.08L51.76,168H58l6,29.57H59.3l-1.24-6.43Zm3.1-17.47-2.39,13.26H57.3Z" fill="#e6e7e8"/><path d="M78.72,177.61V177c0-3.42-1.2-5.15-3.46-5.15a2.88,2.88,0,0,0-2.7,1.47c-.58,1-.71,1.86-.71,4.25v9.85a12.86,12.86,0,0,0,.48,4.39,3.09,3.09,0,0,0,2.93,1.9c1.69,0,2.8-1,3.28-2.92a16.85,16.85,0,0,0,.27-3.59h4.61v1c0,6.42-2.79,9.79-8.11,9.79-3,0-5.33-1.15-6.61-3.28-1.11-1.81-1.42-3.54-1.42-7.93v-8.3c0-4.7.35-6.34,1.73-8.2a7.42,7.42,0,0,1,6.25-2.75c5.06,0,8,3.37,8,9.18v.89Z" fill="#e6e7e8"/><path d="M96.06,197.56H91.49V172.2H85.77V168h16v4.21H96.06Z" fill="#e6e7e8"/><path d="M109.36,197.56h-4.57V168h4.57Z" fill="#e6e7e8"/><path d="M130.16,188.16c0,3.33-.49,5.32-1.69,7-1.33,1.86-3.54,2.83-6.38,2.83s-5.06-1-6.39-2.83c-1.2-1.69-1.68-3.68-1.68-7V177.39c0-3.33.48-5.33,1.68-7,1.33-1.86,3.55-2.84,6.39-2.84s5,1,6.38,2.84c1.2,1.68,1.69,3.68,1.69,7Zm-11.58-.09c0,2.35.14,3.15.58,4a3.49,3.49,0,0,0,5.85,0c.49-.93.58-1.64.58-4v-10.6c0-2.39-.09-3.1-.58-4a3.47,3.47,0,0,0-5.85,0c-.44.89-.58,1.68-.58,4Z" fill="#e6e7e8"/><path d="M151.22,197.56h-4.08l-8-19.69v19.69h-4.34V168h4.61l7.45,18.4V168h4.34Z" fill="#e6e7e8"/><rect width="160" height="600" fill="none"/></g></g></svg>