<svg xmlns="http://www.w3.org/2000/svg" viewBox="0 0 160 600"><title>txt1</title><g id="Layer_2" data-name="Layer 2"><g id="rect"><rect width="160" height="600" fill="none"/></g><g id="Layer_11" data-name="Layer 11"><polygon points="8.32 41.62 8 41.62 8 41.94 8 47.83 8 48.15 8.32 48.15 16 48.15 16 83.29 16 83.61 16.32 83.61 22.7 83.61 23.02 83.61 23.02 83.29 23.02 48.15 30.76 48.15 31.08 48.15 31.08 47.83 31.08 41.94 31.08 41.62 30.76 41.62 8.32 41.62" fill="#e5e6e7"/><path d="M45.82,41c-4.09,0-7.27,1.42-9.18,4.1-1.72,2.42-2.42,5.31-2.42,10V70.15c0,4.67.7,7.56,2.42,10,1.91,2.68,5.09,4.1,9.18,4.1s7.28-1.42,9.19-4.1c1.72-2.42,2.42-5.31,2.42-10V55.08c0-4.67-.7-7.56-2.42-10C53.1,42.42,49.92,41,45.82,41Zm3.81,34.51a4.55,4.55,0,0,1-7.62,0c-.56-1.13-.76-2.13-.76-5.49V55.21c0-3.36.2-4.36.77-5.5a4.55,4.55,0,0,1,7.62,0c.63,1.21.76,2.14.76,5.49V70C50.4,73.37,50.27,74.29,49.63,75.51Z" fill="#e5e6e7"/><path d="M73.1,41.62H62.68v42H73.1c8.27,0,12.29-4.34,12.29-13.28V54.9C85.39,46,81.37,41.62,73.1,41.62Zm5.26,15v12c0,6.26-1.52,8.48-5.82,8.48H69.7V48.15h2.84C76.89,48.15,78.36,50.29,78.36,56.63Z" fill="#e5e6e7"/><path d="M106,41.88l0-.26H96.64l0,.26L88.66,83.23l-.07.38H95.5l0-.26,1.62-8.73h8.28l1.68,8.73.05.26h7.23l-.08-.39Zm-1.69,26.21h-6l3-16.43Z" fill="#e5e6e7"/><polygon points="131.34 41.62 131.11 41.62 131.04 41.84 125.65 58.37 120.43 41.84 120.36 41.62 120.13 41.62 113.06 41.62 112.6 41.62 112.76 42.05 122.04 67.23 122.04 83.29 122.04 83.61 122.36 83.61 128.74 83.61 129.06 83.61 129.06 83.29 129.06 67.23 138.59 42.05 138.75 41.62 138.29 41.62 131.34 41.62" fill="#e5e6e7"/><polygon points="83.53 113.76 86.25 105.21 83.58 105.21 83.58 98.26 89.92 98.26 89.92 105.08 86.2 113.76 83.53 113.76" fill="#e5e6e7"/><path d="M89.76,98.42v6.63L86.1,113.6H83.74l2.73-8.55H83.74V98.42h6m.32-.32H83.42v7.27H86l-2.59,8.14-.13.41h3l.08-.19,3.66-8.55,0-.06v-7Z" fill="#e5e6e7"/><polygon points="18.6 133.56 18.6 98.42 18.6 98.1 18.28 98.1 11.89 98.1 11.57 98.1 11.57 98.42 11.57 139.76 11.57 140.09 11.89 140.09 30.99 140.09 31.31 140.09 31.31 139.76 31.31 133.88 31.31 133.56 30.99 133.56 18.6 133.56" fill="#e5e6e7"/><polygon points="34.96 98.1 34.64 98.1 34.64 98.42 34.64 139.76 34.64 140.09 34.96 140.09 53.68 140.09 54 140.09 54 139.76 54 133.88 54 133.56 53.68 133.56 41.66 133.56 41.66 121.42 50.45 121.42 50.77 121.42 50.77 121.11 50.77 115.22 50.77 114.9 50.45 114.9 41.66 114.9 41.66 104.63 53.68 104.63 54 104.63 54 104.31 54 98.42 54 98.1 53.68 98.1 34.96 98.1" fill="#e5e6e7"/><polygon points="57.21 98.1 56.89 98.1 56.89 98.42 56.89 104.31 56.89 104.63 57.21 104.63 64.89 104.63 64.89 139.76 64.89 140.09 65.21 140.09 71.59 140.09 71.91 140.09 71.91 139.76 71.91 104.63 79.65 104.63 79.97 104.63 79.97 104.31 79.97 98.42 79.97 98.1 79.65 98.1 57.21 98.1" fill="#e5e6e7"/><path d="M107.5,116.45c-4.38-3.33-4.38-3.33-5.42-4.49a5.87,5.87,0,0,1-1.65-3.93,3.78,3.78,0,0,1,3.83-3.9c2.47,0,4.2,2,5.15,5.89l.08.33.32-.1,6.13-1.79.3-.09-.08-.3c-1.76-6.93-5.88-10.59-11.9-10.59a11.49,11.49,0,0,0-8,2.94A10.16,10.16,0,0,0,93.16,108,11.55,11.55,0,0,0,95.52,115c1.56,2,1.82,2.26,7.61,6.81,4.78,3.74,6,5.34,6,7.81a4.16,4.16,0,0,1-4.39,4.39c-3.26,0-5.3-2.41-6.07-7.17l-.06-.36-.35.11-6.13,1.79-.28.08,0,.28c1.33,8,5.53,11.92,12.84,11.92a12.11,12.11,0,0,0,8.42-3,10.41,10.41,0,0,0,3.24-7.85,12.47,12.47,0,0,0-2.74-7.77C112.31,120.39,111,119.23,107.5,116.45Z" fill="#e5e6e7"/><path d="M22.5,154.06H11.58v42h7V179.31h3.9c4.24,0,6.9-.82,8.9-2.75,2.3-2.18,3.38-5.33,3.38-9.9s-1.11-7.69-3.39-9.84C29.4,154.89,26.74,154.06,22.5,154.06Zm5,12.6c0,4.75-1.45,6.12-6.44,6.12H18.6V160.59h2.47C26,160.59,27.51,162,27.51,166.66Z" fill="#e5e6e7"/><path d="M53.12,154.32l0-.26H43.81l-.05.26-7.94,41.35-.07.38h6.91l.05-.26,1.63-8.73h8.27l1.68,8.73.05.26h7.23l-.08-.38Zm-1.69,26.21h-6l3-16.43Z" fill="#e5e6e7"/><polygon points="65.58 154.06 65.26 154.06 65.26 154.38 65.26 195.73 65.26 196.05 65.58 196.05 71.97 196.05 72.29 196.05 72.29 195.73 72.29 154.38 72.29 154.06 71.97 154.06 65.58 154.06" fill="#e5e6e7"/><polygon points="95.8 154.06 95.48 154.06 95.48 154.38 95.48 178.47 85.68 154.26 85.6 154.06 85.39 154.06 78.94 154.06 78.62 154.06 78.62 154.38 78.62 195.73 78.62 196.05 78.94 196.05 85.01 196.05 85.33 196.05 85.33 195.73 85.33 169.85 95.88 195.85 95.96 196.05 96.17 196.05 101.88 196.05 102.19 196.05 102.19 195.73 102.19 154.38 102.19 154.06 101.88 154.06 95.8 154.06" fill="#e5e6e7"/><polygon points="129.43 160.59 129.43 160.27 129.43 154.38 129.43 154.06 129.1 154.06 106.67 154.06 106.34 154.06 106.34 154.38 106.34 160.27 106.34 160.59 106.67 160.59 114.34 160.59 114.34 195.73 114.34 196.05 114.66 196.05 121.05 196.05 121.37 196.05 121.37 195.73 121.37 160.59 129.1 160.59 129.43 160.59" fill="#e5e6e7"/><path d="M136,154v.73h-2.07v5.41h-.84v-5.41H131V154Z" fill="#e5e6e7"/><path d="M136.76,154H138l1.77,5.19,1.75-5.19h1.19v6.14h-.8v-3.63c0-.12,0-.33,0-.62s0-.6,0-.93l-1.75,5.18h-.83L137.53,155v.19c0,.15,0,.38,0,.68s0,.54,0,.68v3.63h-.79Z" fill="#e5e6e7"/></g></g></svg>