<svg xmlns="http://www.w3.org/2000/svg" viewBox="0 0 160 600"><title>txt2</title><g id="Layer_2" data-name="Layer 2"><g id="WITH_NEW_PORCH_PATIO_ANTI-SLIP_FLOOR_PAINT" data-name="WITH NEW PORCH &amp; PATIO ANTI-SLIP FLOOR PAINT"><path d="M15.25,54.25,13.68,46,12.2,54.25H10.44L8.15,42.05H10l1.4,7.87,1.46-7.87h1.63l1.61,7.87,1.22-7.87h1.78L17,54.25Z" fill="#e6e7e8"/><path d="M22.45,54.25H20.56V42.05h1.89Z" fill="#e6e7e8"/><path d="M27.93,54.25H26.05V43.79H23.69V42.05h6.62v1.74H27.93Z" fill="#e6e7e8"/><path d="M33.42,48.87v5.38H31.54V42.05h1.88v5.08h2.69V42.05H38v12.2H36.11V48.87Z" fill="#e6e7e8"/><path d="M49.78,54.25H48.1l-3.29-8.12v8.12H43V42.05h1.91L48,49.64V42.05h1.79Z" fill="#e6e7e8"/><path d="M57.34,43.79H53.7V47h2.69v1.73H53.7v3.77h3.64v1.74H51.81V42.05h5.53Z" fill="#e6e7e8"/><path d="M65.35,54.25,63.78,46,62.3,54.25H60.54l-2.29-12.2h1.83l1.39,7.87,1.47-7.87h1.63l1.61,7.87,1.22-7.87h1.78l-2.07,12.2Z" fill="#e6e7e8"/><path d="M13.61,84.79H9.72V59.58h6.46c2.53,0,4.12.49,5.29,1.63,1.36,1.28,2,3.17,2,5.86s-.64,4.61-2,5.89c-1.17,1.14-2.76,1.63-5.29,1.63H13.61ZM15.31,71c3.14,0,4.12-1,4.12-3.93s-1-3.9-4.12-3.9h-1.7V71Z" fill="#e6e7e8"/><path d="M40,76.78c0,2.83-.42,4.53-1.44,6a6.32,6.32,0,0,1-5.44,2.42,6.32,6.32,0,0,1-5.44-2.42c-1-1.44-1.44-3.14-1.44-6V67.59c0-2.83.42-4.53,1.44-6a6.35,6.35,0,0,1,5.44-2.42,6.35,6.35,0,0,1,5.44,2.42c1,1.44,1.44,3.14,1.44,6Zm-9.87-.08c0,2,.12,2.69.5,3.44a2.77,2.77,0,0,0,2.49,1.36,2.8,2.8,0,0,0,2.5-1.36c.41-.79.49-1.4.49-3.44v-9c0-2-.08-2.65-.49-3.44a2.8,2.8,0,0,0-2.5-1.36,2.77,2.77,0,0,0-2.49,1.36c-.38.76-.5,1.44-.5,3.44Z" fill="#e6e7e8"/><path d="M47.89,84.79H44V59.58h6.08a7,7,0,0,1,5,1.51,7.13,7.13,0,0,1,2.27,5.71c0,3.18-1.13,5.37-3.4,6.54l3.7,11.45H53.56L50.23,74.44H47.89Zm1.44-13.94c1.66,0,2.42-.19,3-.8A4.19,4.19,0,0,0,53.3,67a4.15,4.15,0,0,0-.95-3c-.6-.61-1.36-.8-3-.8H47.89v7.68Z" fill="#e6e7e8"/><path d="M70.46,67.78v-.53c0-2.91-1-4.38-2.95-4.38a2.46,2.46,0,0,0-2.31,1.25c-.49.83-.6,1.59-.6,3.63v8.39A10.9,10.9,0,0,0,65,79.88a2.62,2.62,0,0,0,2.5,1.62c1.43,0,2.38-.83,2.79-2.49A13.69,13.69,0,0,0,70.53,76h3.93v.87c0,5.48-2.38,8.35-6.91,8.35a6.23,6.23,0,0,1-5.64-2.8c-.94-1.55-1.21-3-1.21-6.76V68.54c0-4,.31-5.41,1.48-7a6.31,6.31,0,0,1,5.33-2.35c4.31,0,6.84,2.88,6.84,7.83v.75Z" fill="#e6e7e8"/><path d="M82,73.68V84.79H78.13V59.58H82V70.09h5.56V59.58h3.89V84.79H87.58V73.68Z" fill="#e6e7e8"/><path d="M116,73.53a13.09,13.09,0,0,1-2,6.27,4.67,4.67,0,0,0,2.57,1.59v3.78a7.53,7.53,0,0,1-4.77-2.49c-1.74,1.73-3.1,2.38-5,2.38a5.92,5.92,0,0,1-5.74-6.2c0-2.31,1-4.42,3.36-7.22a13.11,13.11,0,0,1-1.66-6.09c0-3.66,2.15-6.23,5.25-6.23,2.72,0,4.69,2.15,4.69,5.18a7.59,7.59,0,0,1-1.51,4.34c-.61.87-.76,1.06-2.54,3.25A23,23,0,0,0,111.62,77a9.44,9.44,0,0,0,1-3.9Zm-11,4.84c0,1.62,1,3,2.27,3a3.11,3.11,0,0,0,2.34-1.28,18.68,18.68,0,0,1-3.4-5.07A5.66,5.66,0,0,0,105,78.37Zm4.27-14.48c0-1.28-.53-2-1.47-2s-1.66,1-1.66,2.57a10.7,10.7,0,0,0,1,4.38A7.73,7.73,0,0,0,109.27,63.89Z" fill="#e6e7e8"/><path d="M13.61,115.33H9.72V90.12h6.46c2.53,0,4.12.49,5.29,1.63,1.36,1.28,2,3.17,2,5.86s-.64,4.61-2,5.89c-1.17,1.14-2.76,1.63-5.29,1.63H13.61Zm1.7-13.79c3.14,0,4.12-1,4.12-3.93s-1-3.9-4.12-3.9h-1.7v7.83Z" fill="#e6e7e8"/><path d="M30.47,109.85l-1,5.48H25.63l4.84-25.21H35.8l5.1,25.21h-4l-1.06-5.48ZM33.11,95l-2,11.3h4.12Z" fill="#e6e7e8"/><path d="M51.07,115.33h-3.9V93.71H42.3V90.12H56v3.59H51.07Z" fill="#e6e7e8"/><path d="M62.41,115.33h-3.9V90.12h3.9Z" fill="#e6e7e8"/><path d="M80.13,107.32c0,2.83-.41,4.53-1.44,6a6.32,6.32,0,0,1-5.44,2.42,6.32,6.32,0,0,1-5.44-2.42c-1-1.44-1.44-3.14-1.44-6V98.13c0-2.83.42-4.53,1.44-6a6.35,6.35,0,0,1,5.44-2.42,6.35,6.35,0,0,1,5.44,2.42c1,1.44,1.44,3.14,1.44,6Zm-9.86-.08c0,2,.11,2.69.49,3.44a3,3,0,0,0,5,0c.41-.79.49-1.4.49-3.44v-9c0-2-.08-2.65-.49-3.44a3,3,0,0,0-5,0c-.38.76-.49,1.44-.49,3.44Z" fill="#e6e7e8"/><path d="M13.65,140.39l-1,5.48H8.81l4.84-25.21H19l5.1,25.21h-4L19,140.39Zm2.64-14.89-2,11.3h4.12Z" fill="#e6e7e8"/><path d="M41.13,145.87H37.65l-6.81-16.78v16.78h-3.7V120.66h3.93l6.35,15.69V120.66h3.71Z" fill="#e6e7e8"/><path d="M52.43,145.87h-3.9V124.25H43.66v-3.59H57.34v3.59H52.43Z" fill="#e6e7e8"/><path d="M63.77,145.87h-3.9V120.66h3.9Z" fill="#e6e7e8"/><path d="M71.48,137.86H66.07v-3.14h5.41Z" fill="#e6e7e8"/><path d="M83.27,127.69c-.61-2.49-1.74-3.74-3.33-3.74a2.5,2.5,0,0,0-2.53,2.57,3.79,3.79,0,0,0,1.06,2.53c.64.72.64.72,3.32,2.76a21.71,21.71,0,0,1,3.75,3.4,7.37,7.37,0,0,1,1.62,4.62c0,3.81-2.8,6.42-6.92,6.42-4.3,0-6.84-2.31-7.63-7.1l3.74-1.1c.49,3,1.82,4.53,3.89,4.53a2.74,2.74,0,0,0,2.88-2.87c0-1.59-.8-2.61-3.74-4.91-3.52-2.76-3.67-2.91-4.62-4.12a6.88,6.88,0,0,1-1.39-4.2c0-3.63,2.72-6.2,6.57-6.2,3.59,0,6,2.16,7.07,6.32Z" fill="#e6e7e8"/><path d="M94.15,142.28h7.75v3.59H90.26V120.66h3.89Z" fill="#e6e7e8"/><path d="M108.59,145.87H104.7V120.66h3.89Z" fill="#e6e7e8"/><path d="M116.72,145.87h-3.9V120.66h6.47c2.53,0,4.12.49,5.29,1.63,1.36,1.28,2,3.17,2,5.86s-.64,4.61-2,5.89c-1.17,1.14-2.76,1.63-5.29,1.63h-2.57Zm1.7-13.79c3.13,0,4.12-1,4.12-3.93s-1-3.9-4.12-3.9h-1.7v7.83Z" fill="#e6e7e8"/><path d="M13.61,176.41H9.72V151.2H21.24v3.59H13.61v6.81h5.67v3.59H13.61Z" fill="#e6e7e8"/><path d="M27.86,172.82h7.75v3.59H24V151.2h3.89Z" fill="#e6e7e8"/><path d="M51.9,168.4c0,2.83-.42,4.54-1.44,6A6.32,6.32,0,0,1,45,176.79a6.32,6.32,0,0,1-5.44-2.42c-1-1.43-1.44-3.14-1.44-6v-9.18c0-2.84.41-4.54,1.44-6A6.34,6.34,0,0,1,45,150.83a6.34,6.34,0,0,1,5.44,2.41c1,1.44,1.44,3.14,1.44,6ZM42,168.32c0,2,.12,2.69.49,3.44a3,3,0,0,0,5,0c.42-.79.49-1.39.49-3.44v-9c0-2-.07-2.64-.49-3.44a3,3,0,0,0-5,0,7.07,7.07,0,0,0-.49,3.44Z" fill="#e6e7e8"/><path d="M69.36,168.4c0,2.83-.42,4.54-1.44,6a6.32,6.32,0,0,1-5.44,2.42A6.32,6.32,0,0,1,57,174.37c-1-1.43-1.44-3.14-1.44-6v-9.18c0-2.84.42-4.54,1.44-6a6.34,6.34,0,0,1,5.44-2.41,6.34,6.34,0,0,1,5.44,2.41c1,1.44,1.44,3.14,1.44,6Zm-9.87-.08c0,2,.12,2.69.5,3.44a2.76,2.76,0,0,0,2.49,1.37,2.79,2.79,0,0,0,2.5-1.37c.41-.79.49-1.39.49-3.44v-9c0-2-.08-2.64-.49-3.44a2.8,2.8,0,0,0-2.5-1.36A2.77,2.77,0,0,0,60,155.85c-.38.76-.5,1.44-.5,3.44Z" fill="#e6e7e8"/><path d="M77.22,176.41H73.33V151.2h6.08a7,7,0,0,1,5,1.51,7.13,7.13,0,0,1,2.27,5.71c0,3.18-1.13,5.37-3.4,6.54L87,176.41H82.89l-3.33-10.35H77.22Zm1.44-13.94c1.66,0,2.42-.19,3-.8a4.19,4.19,0,0,0,.95-3.06,4.15,4.15,0,0,0-.95-3c-.6-.61-1.36-.8-3-.8H77.22v7.68Z" fill="#e6e7e8"/><path d="M13.61,207H9.72V181.74h6.46c2.53,0,4.12.49,5.29,1.63,1.36,1.28,2,3.17,2,5.86s-.64,4.61-2,5.89c-1.17,1.14-2.76,1.63-5.29,1.63H13.61Zm1.7-13.79c3.14,0,4.12-.95,4.12-3.93s-1-3.9-4.12-3.9h-1.7v7.83Z" fill="#e6e7e8"/><path d="M30.47,201.47l-1,5.48H25.63l4.84-25.21H35.8L40.9,207h-4l-1.06-5.48Zm2.64-14.89-2,11.3h4.12Z" fill="#e6e7e8"/><path d="M47.85,207H44V181.74h3.89Z" fill="#e6e7e8"/><path d="M66.07,207H62.59l-6.8-16.78V207h-3.7V181.74H56l6.35,15.69V181.74h3.7Z" fill="#e6e7e8"/><path d="M77.37,207H73.48V185.33H68.6v-3.59H82.29v3.59H77.37Z" fill="#e6e7e8"/><rect width="160" height="600" fill="none"/></g></g></svg>