<svg xmlns="http://www.w3.org/2000/svg" viewBox="0 0 300 250"><title>txt1</title><g id="Layer_2" data-name="Layer 2"><g id="Layer_9" data-name="Layer 9"><polygon points="12.37 20.44 12.15 20.44 12.15 20.66 12.15 24.81 12.15 25.04 12.37 25.04 17.78 25.04 17.78 49.79 17.78 50.01 18.01 50.01 22.5 50.01 22.73 50.01 22.73 49.79 22.73 25.04 28.18 25.04 28.41 25.04 28.41 24.81 28.41 20.66 28.41 20.44 28.18 20.44 12.37 20.44" fill="#e5e6e7"/><path d="M38.79,20c-2.88,0-5.12,1-6.47,2.89-1.21,1.7-1.7,3.74-1.7,7V40.53c0,3.29.49,5.33,1.7,7,1.35,1.89,3.59,2.89,6.47,2.89s5.12-1,6.47-2.89c1.21-1.7,1.7-3.74,1.7-7V29.92c0-3.29-.49-5.33-1.7-7C43.91,21,41.67,20,38.79,20Zm2.68,24.31a3.2,3.2,0,0,1-5.36,0c-.4-.8-.54-1.5-.54-3.87V30c0-2.37.14-3.07.54-3.88a3.21,3.21,0,0,1,5.36,0c.45.86.54,1.51.54,3.87V40.44C42,42.8,41.92,43.45,41.47,44.31Z" fill="#e5e6e7"/><path d="M58,20.44H50.66V50H58c5.83,0,8.66-3.06,8.66-9.35V29.79C66.66,23.5,63.83,20.44,58,20.44ZM61.71,31v8.43c0,4.41-1.07,6-4.1,6h-2V25h2C60.67,25,61.71,26.54,61.71,31Z" fill="#e5e6e7"/><path d="M81.15,20.62l0-.18H74.59l0,.18L69,49.74l0,.27h4.87l0-.18L75,43.68h5.83L82,49.83,82,50H87.1l0-.27ZM80,39.08H75.74l2.09-11.57Z" fill="#e5e6e7"/><polygon points="99.03 20.44 98.87 20.44 98.82 20.59 95.02 32.24 91.34 20.59 91.29 20.44 91.13 20.44 86.15 20.44 85.83 20.44 85.94 20.74 92.47 38.47 92.47 49.79 92.47 50.01 92.7 50.01 97.2 50.01 97.42 50.01 97.42 49.79 97.42 38.48 104.13 20.74 104.25 20.44 103.92 20.44 99.03 20.44" fill="#e5e6e7"/><polygon points="65.35 71.25 67.27 65.23 65.39 65.23 65.39 60.33 69.85 60.33 69.85 65.14 67.23 71.25 65.35 71.25" fill="#e5e6e7"/><path d="M69.74,60.44v4.68l-2.58,6H65.5l1.92-6H65.5V60.44h4.24m.22-.22H65.27v5.12h1.84l-1.82,5.73-.1.3h2.12l.06-.14,2.57-6,0,0V60.22Z" fill="#e5e6e7"/><polygon points="19.61 85.19 19.61 60.44 19.61 60.22 19.39 60.22 14.89 60.22 14.67 60.22 14.67 60.44 14.67 89.57 14.67 89.79 14.89 89.79 28.34 89.79 28.57 89.79 28.57 89.57 28.57 85.42 28.57 85.19 28.34 85.19 19.61 85.19" fill="#e5e6e7"/><polygon points="31.14 60.22 30.91 60.22 30.91 60.44 30.91 89.57 30.91 89.79 31.14 89.79 44.32 89.79 44.55 89.79 44.55 89.57 44.55 85.42 44.55 85.19 44.32 85.19 35.86 85.19 35.86 76.65 42.05 76.65 42.28 76.65 42.28 76.42 42.28 72.28 42.28 72.05 42.05 72.05 35.86 72.05 35.86 64.82 44.32 64.82 44.55 64.82 44.55 64.59 44.55 60.44 44.55 60.22 44.32 60.22 31.14 60.22" fill="#e5e6e7"/><polygon points="46.81 60.22 46.59 60.22 46.59 60.44 46.59 64.59 46.59 64.82 46.81 64.82 52.22 64.82 52.22 89.57 52.22 89.79 52.44 89.79 56.94 89.79 57.17 89.79 57.17 89.57 57.17 64.82 62.62 64.82 62.84 64.82 62.84 64.59 62.84 60.44 62.84 60.22 62.62 60.22 46.81 60.22" fill="#e5e6e7"/><path d="M82.23,73.15C79.15,70.8,79.15,70.8,78.42,70a4.18,4.18,0,0,1-1.17-2.78A2.66,2.66,0,0,1,80,64.47c1.74,0,3,1.39,3.63,4.15l0,.23.23-.07,4.32-1.26.21-.07,0-.21c-1.25-4.88-4.14-7.46-8.39-7.46a8.14,8.14,0,0,0-5.62,2.07,7.21,7.21,0,0,0-2.2,5.32,8.15,8.15,0,0,0,1.66,5c1.1,1.41,1.28,1.6,5.37,4.8,3.36,2.63,4.24,3.76,4.24,5.5a2.93,2.93,0,0,1-3.1,3.09c-2.29,0-3.73-1.69-4.27-5.05l0-.25-.25.07-4.32,1.27-.19.06,0,.19c.93,5.65,3.89,8.4,9,8.4a8.51,8.51,0,0,0,5.94-2.12,7.34,7.34,0,0,0,2.28-5.53,8.75,8.75,0,0,0-1.93-5.47A24.17,24.17,0,0,0,82.23,73.15Z" fill="#e5e6e7"/><path d="M22.36,99.64H14.67v29.58h4.94V117.43h2.75c3,0,4.86-.58,6.27-1.94,1.62-1.54,2.38-3.76,2.38-7s-.78-5.41-2.38-6.93C27.22,100.22,25.35,99.64,22.36,99.64Zm3.53,8.87c0,3.35-1,4.32-4.54,4.32H19.61v-8.59h1.74C24.83,104.24,25.89,105.24,25.89,108.51Z" fill="#e5e6e7"/><path d="M43.93,99.82l0-.18H37.37l0,.18L31.74,129l0,.27h4.87l0-.19,1.14-6.15h5.83L44.76,129l0,.19h5.09l-.05-.27Zm-1.19,18.47H38.52l2.09-11.58Z" fill="#e5e6e7"/><polygon points="52.71 99.64 52.48 99.64 52.48 99.86 52.48 128.99 52.48 129.22 52.71 129.22 57.2 129.22 57.43 129.22 57.43 128.99 57.43 99.86 57.43 99.64 57.2 99.64 52.71 99.64" fill="#e5e6e7"/><polygon points="73.99 99.64 73.77 99.64 73.77 99.86 73.77 116.83 66.87 99.78 66.81 99.64 66.66 99.64 62.12 99.64 61.89 99.64 61.89 99.86 61.89 128.99 61.89 129.22 62.12 129.22 66.39 129.22 66.62 129.22 66.62 128.99 66.62 110.76 74.05 129.08 74.1 129.22 74.25 129.22 78.27 129.22 78.5 129.22 78.5 128.99 78.5 99.86 78.5 99.64 78.27 99.64 73.99 99.64" fill="#e5e6e7"/><polygon points="97.68 104.24 97.68 104.01 97.68 99.86 97.68 99.64 97.45 99.64 81.65 99.64 81.42 99.64 81.42 99.86 81.42 104.01 81.42 104.24 81.65 104.24 87.05 104.24 87.05 128.99 87.05 129.22 87.28 129.22 91.78 129.22 92 129.22 92 128.99 92 104.24 97.45 104.24 97.68 104.24" fill="#e5e6e7"/><path d="M102.32,99.61v.51h-1.46v3.82h-.59v-3.82H98.81v-.51Z" fill="#e5e6e7"/><path d="M102.84,99.61h.84l1.25,3.66,1.24-3.66H107v4.33h-.56v-2.56c0-.09,0-.23,0-.44v-.66l-1.23,3.66h-.59l-1.24-3.66v.62c0,.22,0,.38,0,.48v2.56h-.56Z" fill="#e5e6e7"/></g><g id="rect"><rect width="300" height="250" fill="none"/></g></g></svg>