<svg xmlns="http://www.w3.org/2000/svg" viewBox="0 0 300 250"><title>txt2</title><g id="Layer_2" data-name="Layer 2"><g id="rect"><rect width="300" height="250" fill="none"/></g><g id="_Text_Layer_5" data-name="&lt;Text Layer&gt; 5"><path d="M21.12,36.07l-1.9-10-1.8,10H15.3L12.53,21.31h2.22l1.68,9.52,1.77-9.52h2l1.94,9.52,1.49-9.52h2.14l-2.5,14.76Z" fill="#e6e7e8"/><path d="M29.82,36.07H27.54V21.31h2.28Z" fill="#e6e7e8"/><path d="M36.46,36.07H34.18V23.41H31.32v-2.1h8v2.1H36.46Z" fill="#e6e7e8"/><path d="M43.1,29.56v6.51H40.82V21.31H43.1v6.15h3.25V21.31h2.28V36.07H46.35V29.56Z" fill="#e6e7e8"/><path d="M62.88,36.07h-2l-4-9.82v9.82H54.7V21.31H57l3.71,9.18V21.31h2.17Z" fill="#e6e7e8"/><path d="M72,23.41h-4.4v3.9h3.25v2.1H67.62V34H72v2.1H65.34V21.31H72Z" fill="#e6e7e8"/><path d="M81.72,36.07l-1.91-10L78,36.07H75.9L73.13,21.31h2.21L77,30.83l1.77-9.52h2l1.95,9.52,1.48-9.52h2.15l-2.5,14.76Z" fill="#e6e7e8"/><path d="M17.48,66.09h-3.6V42.75h6c2.35,0,3.82.45,4.9,1.5,1.26,1.19,1.86,2.94,1.86,5.43S26,54,24.76,55.14c-1.08,1-2.55,1.5-4.9,1.5H17.48Zm1.58-12.77c2.9,0,3.81-.88,3.81-3.64s-.91-3.61-3.81-3.61H17.48v7.25Z" fill="#e6e7e8"/><path d="M42,58.67c0,2.63-.39,4.2-1.33,5.53a5.87,5.87,0,0,1-5,2.24,5.87,5.87,0,0,1-5-2.24c-.95-1.33-1.33-2.9-1.33-5.53v-8.5c0-2.63.38-4.2,1.33-5.53a5.87,5.87,0,0,1,5-2.24,5.87,5.87,0,0,1,5,2.24C41.56,46,42,47.54,42,50.17Zm-9.14-.07a6.43,6.43,0,0,0,.46,3.19,2.75,2.75,0,0,0,4.62,0c.38-.74.45-1.3.45-3.19V50.24c0-1.89-.07-2.45-.45-3.19a2.75,2.75,0,0,0-4.62,0,6.43,6.43,0,0,0-.46,3.19Z" fill="#e6e7e8"/><path d="M49.23,66.09H45.62V42.75h5.64a6.48,6.48,0,0,1,4.62,1.4A6.57,6.57,0,0,1,58,49.43c0,2.94-1,5-3.15,6.06l3.43,10.6H54.48L51.4,56.5H49.23Zm1.33-12.91c1.54,0,2.24-.18,2.8-.74a3.89,3.89,0,0,0,.87-2.83,3.85,3.85,0,0,0-.87-2.8c-.56-.56-1.26-.74-2.8-.74H49.23v7.11Z" fill="#e6e7e8"/><path d="M70.12,50.34v-.49c0-2.69-.94-4.06-2.73-4.06A2.26,2.26,0,0,0,65.26,47c-.46.77-.56,1.47-.56,3.36v7.77a10,10,0,0,0,.38,3.46,2.43,2.43,0,0,0,2.31,1.51A2.58,2.58,0,0,0,70,60.74a12.9,12.9,0,0,0,.21-2.84h3.64v.81c0,5.07-2.2,7.73-6.4,7.73a5.78,5.78,0,0,1-5.22-2.59c-.87-1.43-1.12-2.8-1.12-6.26V51c0-3.71.28-5,1.37-6.47a5.83,5.83,0,0,1,4.93-2.17c4,0,6.34,2.66,6.34,7.24v.7Z" fill="#e6e7e8"/><path d="M80.83,55.8V66.09h-3.6V42.75h3.6v9.73H86V42.75h3.6V66.09H86V55.8Z" fill="#e6e7e8"/><path d="M112.33,55.66a12.16,12.16,0,0,1-1.85,5.81,4.34,4.34,0,0,0,2.38,1.47v3.5a6.89,6.89,0,0,1-4.41-2.31c-1.61,1.61-2.87,2.21-4.59,2.21a5.49,5.49,0,0,1-5.32-5.74c0-2.14.91-4.1,3.12-6.69a12.13,12.13,0,0,1-1.54-5.63c0-3.4,2-5.78,4.86-5.78,2.52,0,4.34,2,4.34,4.8a7,7,0,0,1-1.4,4c-.56.81-.7,1-2.34,3a20.72,20.72,0,0,0,2.66,4.55,8.59,8.59,0,0,0,.94-3.6Zm-10.22,4.48c0,1.51,1,2.77,2.1,2.77a2.86,2.86,0,0,0,2.17-1.19A17.45,17.45,0,0,1,103.23,57,5.26,5.26,0,0,0,102.11,60.14Zm4-13.4c0-1.19-.49-1.89-1.37-1.89s-1.54.91-1.54,2.38a10,10,0,0,0,.91,4.06A7.19,7.19,0,0,0,106.07,46.74Z" fill="#e6e7e8"/><path d="M125.25,66.09h-3.61V42.75h6c2.34,0,3.81.45,4.9,1.5,1.26,1.19,1.85,2.94,1.85,5.43s-.59,4.27-1.85,5.46c-1.09,1-2.56,1.5-4.9,1.5h-2.38Zm1.57-12.77c2.91,0,3.82-.88,3.82-3.64s-.91-3.61-3.82-3.61h-1.57v7.25Z" fill="#e6e7e8"/><path d="M140.86,61l-1,5.07h-3.53l4.48-23.34h4.93l4.73,23.34h-3.71l-1-5.07Zm2.45-13.79-1.89,10.46h3.81Z" fill="#e6e7e8"/><path d="M159.93,66.09h-3.6v-20h-4.52V42.75h12.67v3.32h-4.55Z" fill="#e6e7e8"/><path d="M170.43,66.09h-3.6V42.75h3.6Z" fill="#e6e7e8"/><path d="M186.85,58.67c0,2.63-.39,4.2-1.33,5.53a6.79,6.79,0,0,1-10.08,0c-.95-1.33-1.33-2.9-1.33-5.53v-8.5c0-2.63.38-4.2,1.33-5.53a6.79,6.79,0,0,1,10.08,0c.94,1.33,1.33,2.9,1.33,5.53Zm-9.14-.07a6.43,6.43,0,0,0,.46,3.19,2.75,2.75,0,0,0,4.62,0c.38-.74.45-1.3.45-3.19V50.24c0-1.89-.07-2.45-.45-3.19a2.75,2.75,0,0,0-4.62,0,6.43,6.43,0,0,0-.46,3.19Z" fill="#e6e7e8"/><path d="M17.52,91l-.95,5.08H13l4.48-23.35h4.93l4.73,23.35H23.47l-1-5.08ZM20,77.25,18.08,87.72h3.81Z" fill="#e6e7e8"/><path d="M43,96.12H39.74l-6.3-15.54V96.12H30V72.77h3.64L39.53,87.3V72.77H43Z" fill="#e6e7e8"/><path d="M53.43,96.12H49.82v-20H45.31V72.77H58V76.1H53.43Z" fill="#e6e7e8"/><path d="M63.93,96.12H60.32V72.77h3.61Z" fill="#e6e7e8"/><path d="M71.07,88.7h-5V85.79h5Z" fill="#e6e7e8"/><path d="M82,79.28c-.56-2.31-1.61-3.46-3.08-3.46a2.31,2.31,0,0,0-2.35,2.38,3.49,3.49,0,0,0,1,2.34,16.84,16.84,0,0,0,3.08,2.56,19.4,19.4,0,0,1,3.47,3.15,6.82,6.82,0,0,1,1.5,4.27c0,3.53-2.59,6-6.4,6-4,0-6.34-2.14-7.07-6.58l3.46-1c.46,2.8,1.68,4.2,3.61,4.2a2.54,2.54,0,0,0,2.66-2.66c0-1.47-.74-2.41-3.47-4.55-3.25-2.55-3.39-2.69-4.27-3.81a6.34,6.34,0,0,1-1.29-3.89c0-3.36,2.52-5.74,6.09-5.74,3.32,0,5.56,2,6.54,5.85Z" fill="#e6e7e8"/><path d="M92.07,92.79h7.17v3.33H88.46V72.77h3.61Z" fill="#e6e7e8"/><path d="M105.44,96.12h-3.61V72.77h3.61Z" fill="#e6e7e8"/><path d="M113,96.12h-3.61V72.77h6c2.35,0,3.82.46,4.9,1.51,1.26,1.19,1.86,2.94,1.86,5.42s-.6,4.27-1.86,5.46c-1.08,1-2.55,1.51-4.9,1.51H113Zm1.58-12.78c2.9,0,3.81-.87,3.81-3.64s-.91-3.6-3.81-3.6H113v7.24Z" fill="#e6e7e8"/><path d="M17.48,126.14h-3.6V102.8H24.55v3.32H17.48v6.3h5.25v3.33H17.48Z" fill="#e6e7e8"/><path d="M30.68,122.82h7.17v3.32H27.07V102.8h3.61Z" fill="#e6e7e8"/><path d="M52.94,118.72c0,2.63-.39,4.2-1.33,5.53a5.87,5.87,0,0,1-5,2.24,5.87,5.87,0,0,1-5-2.24c-1-1.33-1.33-2.9-1.33-5.53v-8.5c0-2.63.38-4.2,1.33-5.53a5.87,5.87,0,0,1,5-2.24,5.87,5.87,0,0,1,5,2.24c.94,1.33,1.33,2.9,1.33,5.53Zm-9.14-.07a6.43,6.43,0,0,0,.46,3.19,2.75,2.75,0,0,0,4.62,0c.38-.74.45-1.3.45-3.19v-8.36c0-1.89-.07-2.45-.45-3.19a2.75,2.75,0,0,0-4.62,0,6.43,6.43,0,0,0-.46,3.19Z" fill="#e6e7e8"/><path d="M69.11,118.72c0,2.63-.39,4.2-1.33,5.53a5.87,5.87,0,0,1-5,2.24,5.87,5.87,0,0,1-5-2.24c-1-1.33-1.33-2.9-1.33-5.53v-8.5c0-2.63.38-4.2,1.33-5.53a5.87,5.87,0,0,1,5-2.24,5.87,5.87,0,0,1,5,2.24c.94,1.33,1.33,2.9,1.33,5.53ZM60,118.65a6.43,6.43,0,0,0,.46,3.19,2.75,2.75,0,0,0,4.62,0c.38-.74.45-1.3.45-3.19v-8.36c0-1.89-.07-2.45-.45-3.19a2.75,2.75,0,0,0-4.62,0,6.43,6.43,0,0,0-.46,3.19Z" fill="#e6e7e8"/><path d="M76.39,126.14H72.78V102.8h5.64A6.48,6.48,0,0,1,83,104.2a6.57,6.57,0,0,1,2.1,5.28c0,2.94-1,5-3.15,6.06l3.43,10.6H81.64l-3.08-9.59H76.39Zm1.33-12.91c1.54,0,2.24-.18,2.8-.74a5,5,0,0,0,0-5.63c-.56-.56-1.26-.74-2.8-.74H76.39v7.11Z" fill="#e6e7e8"/><path d="M97.81,126.14H94.2V102.8h6c2.34,0,3.81.45,4.9,1.5,1.26,1.19,1.85,2.94,1.85,5.43s-.59,4.27-1.85,5.46c-1.09,1-2.56,1.5-4.9,1.5H97.81Zm1.57-12.77c2.91,0,3.82-.88,3.82-3.64s-.91-3.61-3.82-3.61H97.81v7.25Z" fill="#e6e7e8"/><path d="M113.42,121.07l-1,5.07h-3.53l4.48-23.34h4.93l4.73,23.34h-3.71l-1-5.07Zm2.45-13.79L114,117.74h3.81Z" fill="#e6e7e8"/><path d="M129.52,126.14h-3.61V102.8h3.61Z" fill="#e6e7e8"/><path d="M146.39,126.14h-3.22l-6.3-15.54v15.54h-3.43V102.8h3.64L143,117.32V102.8h3.43Z" fill="#e6e7e8"/><path d="M156.85,126.14h-3.6v-20h-4.52V102.8H161.4v3.32h-4.55Z" fill="#e6e7e8"/></g></g></svg>