<svg xmlns="http://www.w3.org/2000/svg" viewBox="0 0 300 250"><title>txt1</title><g id="Layer_2" data-name="Layer 2"><g id="rect"><rect width="300" height="250" fill="none"/></g><g id="TRIED_AND_TRUSTED_TRACTION" data-name="TRIED AND TRUSTEDTRACTION"><path d="M22.21,48.54H17.85V24.33H12.39v-4H27.71v4h-5.5Z" fill="#e6e7e8"/><path d="M34.9,48.54H30.54V20.31h6.82c2.58,0,4.23.51,5.59,1.69a8,8,0,0,1,2.54,6.39c0,3.56-1.27,6-3.81,7.33l4.14,12.82H41.25l-3.72-11.6H34.9Zm1.61-15.62c1.86,0,2.71-.21,3.39-.89A4.67,4.67,0,0,0,41,28.61a4.64,4.64,0,0,0-1.06-3.39c-.68-.68-1.53-.89-3.39-.89H34.9v8.59Z" fill="#e6e7e8"/><path d="M53.91,48.54H49.55V20.31h4.36Z" fill="#e6e7e8"/><path d="M71.43,24.33H63v7.45h6.22v4H63v8.72h8.42v4H58.65V20.31H71.43Z" fill="#e6e7e8"/><path d="M74.85,20.31h6.9c5.55,0,8.17,2.84,8.17,8.85V39.7c0,6-2.62,8.84-8.17,8.84h-6.9Zm6.52,24.21c3.09,0,4.19-1.61,4.19-6V30.34c0-4.44-1.1-6-4.19-6H79.21V44.52Z" fill="#e6e7e8"/><path d="M105.62,42.4l-1.14,6.14h-4.27l5.41-28.23h6l5.72,28.23h-4.49l-1.19-6.14Zm3-16.67L106.3,38.38h4.62Z" fill="#e6e7e8"/><path d="M136.39,48.54H132.5l-7.62-18.79V48.54h-4.15V20.31h4.4l7.12,17.57V20.31h4.14Z" fill="#e6e7e8"/><path d="M141.09,20.31H148c5.54,0,8.17,2.84,8.17,8.85V39.7c0,6-2.63,8.84-8.17,8.84h-6.9Zm6.52,24.21c3.09,0,4.19-1.61,4.19-6V30.34c0-4.44-1.1-6-4.19-6h-2.16V44.52Z" fill="#e6e7e8"/><path d="M22.21,89H17.85V64.75H12.39v-4H27.71v4h-5.5Z" fill="#e6e7e8"/><path d="M34.9,89H30.54V60.73h6.82c2.58,0,4.23.51,5.59,1.69a8,8,0,0,1,2.54,6.4c0,3.55-1.27,6-3.81,7.32L45.82,89H41.25L37.53,77.37H34.9Zm1.61-15.62c1.86,0,2.71-.21,3.39-.88A4.7,4.7,0,0,0,41,69a4.64,4.64,0,0,0-1.06-3.39c-.68-.68-1.53-.89-3.39-.89H34.9v8.59Z" fill="#e6e7e8"/><path d="M64.49,60.73V79.86c0,3.56-.42,5.38-1.61,7A7,7,0,0,1,57,89.39a7,7,0,0,1-5.88-2.54c-1.19-1.61-1.61-3.43-1.61-7V60.73h4.36V80.58c0,3.35.89,4.7,3.13,4.7s3.09-1.35,3.09-4.7V60.73Z" fill="#e6e7e8"/><path d="M79.81,68.6c-.68-2.79-2-4.19-3.73-4.19a2.8,2.8,0,0,0-2.83,2.88,4.25,4.25,0,0,0,1.18,2.84c.72.8.72.8,3.73,3.09A23.19,23.19,0,0,1,82.35,77a8.25,8.25,0,0,1,1.82,5.16c0,4.28-3.13,7.2-7.75,7.2-4.82,0-7.66-2.58-8.55-8l4.19-1.23c.55,3.39,2,5.08,4.36,5.08a3.07,3.07,0,0,0,3.22-3.22c0-1.77-.89-2.92-4.19-5.5-3.94-3.09-4.11-3.26-5.16-4.61a7.62,7.62,0,0,1-1.57-4.7c0-4.06,3-6.94,7.36-6.94,4,0,6.73,2.41,7.92,7.07Z" fill="#e6e7e8"/><path d="M95.59,89H91.24V64.75H85.77v-4H101.1v4H95.59Z" fill="#e6e7e8"/><path d="M116.71,64.75h-8.42V72.2h6.22v4h-6.22v8.72h8.42v4H103.93V60.73h12.78Z" fill="#e6e7e8"/><path d="M120.14,60.73H127c5.54,0,8.17,2.84,8.17,8.85V80.12c0,6-2.63,8.84-8.17,8.84h-6.9Zm6.52,24.21c3.09,0,4.19-1.61,4.19-6V70.76c0-4.44-1.1-6-4.19-6H124.5V84.94Z" fill="#e6e7e8"/><path d="M22.21,129.39H17.85V105.17H12.39v-4H27.71v4h-5.5Z" fill="#e6e7e8"/><path d="M34.9,129.39H30.54V101.15h6.82c2.58,0,4.23.51,5.59,1.7a8,8,0,0,1,2.54,6.39c0,3.55-1.27,6-3.81,7.32l4.14,12.83H41.25l-3.72-11.6H34.9Zm1.61-15.62c1.86,0,2.71-.21,3.39-.89a6,6,0,0,0,0-6.82c-.68-.67-1.53-.89-3.39-.89H34.9v8.6Z" fill="#e6e7e8"/><path d="M54,123.25l-1.14,6.14H48.53L54,101.15h6l5.71,28.24H61.14L60,123.25Zm3-16.68-2.28,12.66h4.61Z" fill="#e6e7e8"/><path d="M79.68,110.34v-.59c0-3.26-1.14-4.91-3.3-4.91a2.74,2.74,0,0,0-2.58,1.39c-.55.93-.68,1.78-.68,4.07v9.39a12,12,0,0,0,.47,4.19,2.93,2.93,0,0,0,2.79,1.82c1.61,0,2.67-.93,3.13-2.79a16.25,16.25,0,0,0,.26-3.43h4.4v1c0,6.14-2.67,9.36-7.75,9.36-2.83,0-5.08-1.1-6.3-3.13-1.06-1.74-1.36-3.39-1.36-7.58v-7.92c0-4.48.34-6.05,1.65-7.83a7.09,7.09,0,0,1,6-2.62c4.83,0,7.66,3.22,7.66,8.76v.85Z" fill="#e6e7e8"/><path d="M96.23,129.39H91.87V105.17H86.41v-4h15.32v4h-5.5Z" fill="#e6e7e8"/><path d="M108.93,129.39h-4.36V101.15h4.36Z" fill="#e6e7e8"/><path d="M128.78,120.41c0,3.18-.47,5.08-1.61,6.69-1.27,1.78-3.39,2.71-6.1,2.71s-4.82-.93-6.09-2.71c-1.15-1.61-1.61-3.51-1.61-6.69V110.13c0-3.18.46-5.08,1.61-6.69,1.27-1.78,3.38-2.71,6.09-2.71s4.83.93,6.1,2.71c1.14,1.61,1.61,3.51,1.61,6.69Zm-11-.08c0,2.24.12,3,.55,3.85a3.33,3.33,0,0,0,5.59,0c.46-.89.55-1.57.55-3.85V110.21c0-2.28-.09-3-.55-3.85a3.33,3.33,0,0,0-5.59,0c-.43.85-.55,1.61-.55,3.85Z" fill="#e6e7e8"/><path d="M148.88,129.39H145l-7.61-18.8v18.8h-4.15V101.15h4.4l7.11,17.57V101.15h4.15Z" fill="#e6e7e8"/></g></g></svg>