<svg xmlns="http://www.w3.org/2000/svg" viewBox="0 0 728 90"><title>txt1</title><g id="Layer_2" data-name="Layer 2"><g id="rect"><rect width="728" height="90" fill="none"/></g><g id="Layer_8" data-name="Layer 8"><path d="M26.19,65.4h-6.3v-35H12V24.6H34.14v5.81H26.19Z" fill="#e5e6e7"/><path d="M60.14,52.43c0,4.59-.68,7.34-2.33,9.67C56,64.67,52.92,66,49,66s-7-1.34-8.8-3.91c-1.65-2.33-2.33-5.08-2.33-9.67V37.57c0-4.59.68-7.34,2.33-9.67C42,25.33,45.09,24,49,24s7,1.34,8.81,3.91c1.65,2.33,2.33,5.08,2.33,9.67Zm-16-.12c0,3.24.19,4.34.8,5.57a4.8,4.8,0,0,0,8.07,0c.67-1.29.8-2.27.8-5.57V37.69c0-3.3-.13-4.28-.8-5.57a4.8,4.8,0,0,0-8.07,0c-.61,1.23-.8,2.33-.8,5.57Z" fill="#e5e6e7"/><path d="M66,24.6h10c8,0,11.8,4.1,11.8,12.78V52.62c0,8.68-3.79,12.78-11.8,12.78H66Zm9.42,35c4.46,0,6-2.33,6-8.69V39.1c0-6.43-1.59-8.69-6-8.69H72.25V59.59Z" fill="#e5e6e7"/><path d="M99.41,56.53,97.75,65.4H91.58l7.83-40.8H108l8.26,40.8H109.8l-1.71-8.87Zm4.28-24.1-3.31,18.29h6.67Z" fill="#e5e6e7"/><path d="M131.46,65.4h-6.3V49.5L116,24.6h7l5.45,17.25L134,24.6h6.86l-9.42,24.9Z" fill="#e5e6e7"/><path d="M160.63,59.59h12.54V65.4H154.33V24.6h6.3Z" fill="#e5e6e7"/><path d="M195.56,30.41H183.38V41.18h9V47h-9v12.6h12.18V65.4H177.08V24.6h18.48Z" fill="#e5e6e7"/><path d="M213.23,65.4h-6.3v-35H199V24.6h22.14v5.81h-8Z" fill="#e5e6e7"/><path d="M231.15,31.15l-3.61,8.44h-2.32l2.69-8.44h-2.69V24.6h5.93Z" fill="#e5e6e7"/><path d="M250,36c-1-4-2.82-6.06-5.39-6.06a4,4,0,0,0-4.1,4.16,6.13,6.13,0,0,0,1.72,4.1c1,1.16,1,1.16,5.38,4.46a34.54,34.54,0,0,1,6.06,5.51,11.93,11.93,0,0,1,2.63,7.46c0,6.18-4.53,10.4-11.2,10.4-7,0-11.07-3.73-12.35-11.5l6-1.77c.8,4.89,2.94,7.34,6.3,7.34a4.44,4.44,0,0,0,4.65-4.65c0-2.57-1.28-4.22-6.06-8-5.68-4.47-5.93-4.71-7.46-6.67A11,11,0,0,1,233.93,34c0-5.87,4.4-10,10.64-10,5.81,0,9.73,3.49,11.44,10.21Z" fill="#e5e6e7"/><path d="M278.43,65.4h-6.3V24.6h10.46c4.1,0,6.67.8,8.57,2.63,2.2,2.08,3.24,5.14,3.24,9.48s-1,7.46-3.24,9.54c-1.9,1.84-4.47,2.63-8.57,2.63h-4.16Zm2.75-22.33c5.08,0,6.67-1.53,6.67-6.36s-1.59-6.3-6.67-6.3h-2.75V43.07Z" fill="#e5e6e7"/><path d="M303.88,56.53l-1.65,8.87h-6.18l7.83-40.8h8.62l8.26,40.8h-6.48l-1.72-8.87Zm4.28-24.1-3.3,18.29h6.66Z" fill="#e5e6e7"/><path d="M331.82,65.4h-6.3V24.6h6.3Z" fill="#e5e6e7"/><path d="M360.69,65.4h-5.62l-11-27.16V65.4h-6V24.6h6.36L354.7,50V24.6h6Z" fill="#e5e6e7"/><path d="M379.71,65.4h-6.3v-35h-7.89V24.6h22.14v5.81h-8Z" fill="#e5e6e7"/><path d="M393.41,25.13v.55h-1.57v4.09h-.63V25.68h-1.57v-.55Z" fill="#e5e6e7"/><path d="M394,25.13h.91l1.33,3.93,1.33-3.93h.9v4.64h-.61V27c0-.09,0-.25,0-.47s0-.46,0-.71l-1.33,3.92h-.62l-1.34-3.92V26c0,.11,0,.28,0,.52s0,.4,0,.51v2.74H394Z" fill="#e5e6e7"/></g></g></svg>