<svg xmlns="http://www.w3.org/2000/svg" viewBox="0 0 728 90"><title>txt2</title><g id="Layer_2" data-name="Layer 2"><g id="rect"><rect width="728" height="90" fill="none"/></g><g id="_Text_Layer_5" data-name="&lt;Text Layer&gt; 5"><path d="M21.82,36.19,19.74,25.27l-2,10.92H15.46l-3-16.12h2.42L16.7,30.46l1.93-10.39h2.15l2.13,10.39,1.62-10.39h2.34L24.14,36.19Z" fill="#e6e7e8"/><path d="M31.32,36.19H28.83V20.07h2.49Z" fill="#e6e7e8"/><path d="M38.57,36.19H36.08V22.36H33V20.07h8.75v2.29H38.57Z" fill="#e6e7e8"/><path d="M45.82,29.08v7.11H43.33V20.07h2.49v6.72h3.55V20.07h2.49V36.19H49.37V29.08Z" fill="#e6e7e8"/><path d="M67.42,36.19H65.2L60.85,25.46V36.19H58.48V20.07H61l4.06,10v-10h2.37Z" fill="#e6e7e8"/><path d="M77.4,22.36H72.59v4.26h3.55v2.3H72.59v5H77.4v2.3H70.1V20.07h7.3Z" fill="#e6e7e8"/><path d="M88,36.19,85.91,25.27,84,36.19H81.63l-3-16.12H81l1.83,10.39L84.8,20.07H87l2.12,10.39,1.62-10.39H93L90.31,36.19Z" fill="#e6e7e8"/><path d="M17.6,69.57H13.83V45.11H20.1c2.45,0,4,.47,5.13,1.58,1.32,1.24,1.94,3.08,1.94,5.68s-.62,4.47-1.94,5.72c-1.14,1.1-2.68,1.58-5.13,1.58H17.6Zm1.65-13.39c3.05,0,4-.91,4-3.81s-.95-3.78-4-3.78H17.6v7.59Z" fill="#e6e7e8"/><path d="M43.23,61.79c0,2.75-.4,4.4-1.39,5.79a6.12,6.12,0,0,1-5.28,2.35,6.12,6.12,0,0,1-5.28-2.35c-1-1.39-1.39-3-1.39-5.79V52.88c0-2.75.4-4.4,1.39-5.79a6.15,6.15,0,0,1,5.28-2.35,6.15,6.15,0,0,1,5.28,2.35c1,1.39,1.39,3,1.39,5.79Zm-9.57-.07a6.73,6.73,0,0,0,.48,3.34,2.88,2.88,0,0,0,4.84,0c.4-.77.48-1.36.48-3.34V53c0-2-.08-2.57-.48-3.34a2.88,2.88,0,0,0-4.84,0c-.37.73-.48,1.39-.48,3.34Z" fill="#e6e7e8"/><path d="M50.86,69.57H47.08V45.11H53a6.78,6.78,0,0,1,4.84,1.47A6.89,6.89,0,0,1,60,52.11c0,3.08-1.1,5.21-3.3,6.35l3.59,11.11h-4l-3.23-10H50.86ZM52.25,56c1.62,0,2.35-.19,2.94-.77a4.11,4.11,0,0,0,.91-3,4.05,4.05,0,0,0-.91-2.93c-.59-.58-1.32-.77-2.94-.77H50.86V56Z" fill="#e6e7e8"/><path d="M72.75,53.07v-.52c0-2.82-1-4.25-2.86-4.25a2.4,2.4,0,0,0-2.24,1.21c-.47.81-.58,1.54-.58,3.52v8.14a10.59,10.59,0,0,0,.4,3.63,2.55,2.55,0,0,0,2.42,1.58c1.39,0,2.31-.81,2.71-2.42a13.24,13.24,0,0,0,.22-3h3.82v.84c0,5.32-2.31,8.1-6.71,8.1a6.06,6.06,0,0,1-5.47-2.71c-.91-1.5-1.17-2.93-1.17-6.56V53.8c0-3.89.29-5.24,1.43-6.78a6.12,6.12,0,0,1,5.17-2.28c4.18,0,6.64,2.79,6.64,7.59v.74Z" fill="#e6e7e8"/><path d="M84,58.79V69.57H80.19V45.11H84V55.3h5.39V45.11h3.78V69.57H89.36V58.79Z" fill="#e6e7e8"/><path d="M117,58.64A12.81,12.81,0,0,1,115,64.73a4.57,4.57,0,0,0,2.49,1.54v3.66a7.25,7.25,0,0,1-4.62-2.42c-1.69,1.69-3,2.31-4.8,2.31a5.75,5.75,0,0,1-5.58-6c0-2.24,1-4.29,3.27-7a12.67,12.67,0,0,1-1.62-5.91c0-3.55,2.09-6,5.1-6,2.64,0,4.55,2.09,4.55,5a7.34,7.34,0,0,1-1.47,4.21c-.59.85-.73,1-2.46,3.16A22.19,22.19,0,0,0,112.68,62a9,9,0,0,0,1-3.77Zm-10.71,4.69c0,1.58,1,2.9,2.2,2.9A3,3,0,0,0,110.74,65a17.85,17.85,0,0,1-3.3-4.91A5.45,5.45,0,0,0,106.26,63.33Zm4.15-14c0-1.25-.52-2-1.43-2s-1.62.95-1.62,2.49a10.46,10.46,0,0,0,1,4.26A7.59,7.59,0,0,0,110.41,49.29Z" fill="#e6e7e8"/><path d="M130.5,69.57h-3.78V45.11H133c2.46,0,4,.47,5.14,1.58,1.32,1.24,1.94,3.08,1.94,5.68s-.62,4.47-1.94,5.72c-1.14,1.1-2.68,1.58-5.14,1.58H130.5Zm1.65-13.39c3,0,4-.91,4-3.81s-1-3.78-4-3.78H130.5v7.59Z" fill="#e6e7e8"/><path d="M146.85,64.25l-1,5.32h-3.7l4.69-24.46H152L157,69.57h-3.88l-1-5.32Zm2.57-14.45-2,11h4Z" fill="#e6e7e8"/><path d="M166.84,69.57h-3.78v-21h-4.73V45.11H171.6v3.48h-4.76Z" fill="#e6e7e8"/><path d="M177.84,69.57h-3.78V45.11h3.78Z" fill="#e6e7e8"/><path d="M195,61.79c0,2.75-.4,4.4-1.39,5.79a7.11,7.11,0,0,1-10.56,0c-1-1.39-1.39-3-1.39-5.79V52.88c0-2.75.4-4.4,1.39-5.79a7.11,7.11,0,0,1,10.56,0c1,1.39,1.39,3,1.39,5.79Zm-9.57-.07a6.73,6.73,0,0,0,.48,3.34,2.88,2.88,0,0,0,4.84,0c.4-.77.48-1.36.48-3.34V53c0-2-.08-2.57-.48-3.34a2.88,2.88,0,0,0-4.84,0c-.37.73-.48,1.39-.48,3.34Z" fill="#e6e7e8"/><path d="M208.67,64.25l-1,5.32H204l4.69-24.46h5.17l4.95,24.46h-3.88l-1-5.32Zm2.57-14.45-2,11h4Z" fill="#e6e7e8"/><path d="M235.33,69.57H232l-6.61-16.28V69.57h-3.59V45.11h3.82l6.15,15.22V45.11h3.6Z" fill="#e6e7e8"/><path d="M246.29,69.57h-3.77v-21h-4.73V45.11h13.27v3.48h-4.77Z" fill="#e6e7e8"/><path d="M257.29,69.57h-3.78V45.11h3.78Z" fill="#e6e7e8"/><path d="M264.77,61.79h-5.24v-3h5.24Z" fill="#e6e7e8"/><path d="M276.21,51.93c-.59-2.42-1.69-3.63-3.23-3.63a2.41,2.41,0,0,0-2.45,2.49,3.67,3.67,0,0,0,1,2.46c.63.7.63.7,3.23,2.68a20.56,20.56,0,0,1,3.63,3.3A7.14,7.14,0,0,1,280,63.7c0,3.7-2.72,6.23-6.71,6.23-4.18,0-6.64-2.23-7.41-6.89L269.5,62c.48,2.93,1.76,4.4,3.78,4.4a2.65,2.65,0,0,0,2.78-2.79c0-1.54-.77-2.53-3.63-4.77-3.41-2.67-3.55-2.82-4.47-4a6.65,6.65,0,0,1-1.36-4.08c0-3.51,2.64-6,6.38-6,3.49,0,5.83,2.09,6.86,6.13Z" fill="#e6e7e8"/><path d="M286.77,66.08h7.52v3.49H283V45.11h3.78Z" fill="#e6e7e8"/><path d="M300.78,69.57H297V45.11h3.78Z" fill="#e6e7e8"/><path d="M308.66,69.57h-3.78V45.11h6.27c2.46,0,4,.47,5.14,1.58,1.32,1.24,1.94,3.08,1.94,5.68s-.62,4.47-1.94,5.72c-1.14,1.1-2.68,1.58-5.14,1.58h-2.49Zm1.65-13.39c3,0,4-.91,4-3.81s-1-3.78-4-3.78h-1.65v7.59Z" fill="#e6e7e8"/><path d="M331,69.57h-3.77V45.11h11.18v3.48H331v6.6h5.5v3.49H331Z" fill="#e6e7e8"/><path d="M344.78,66.08h7.51v3.49H341V45.11h3.78Z" fill="#e6e7e8"/><path d="M368.1,61.79c0,2.75-.41,4.4-1.4,5.79a7.11,7.11,0,0,1-10.56,0c-1-1.39-1.39-3-1.39-5.79V52.88c0-2.75.4-4.4,1.39-5.79a7.11,7.11,0,0,1,10.56,0c1,1.39,1.4,3,1.4,5.79Zm-9.57-.07a6.89,6.89,0,0,0,.47,3.34,2.88,2.88,0,0,0,4.84,0c.41-.77.48-1.36.48-3.34V53c0-2-.07-2.57-.48-3.34a2.88,2.88,0,0,0-4.84,0,6.84,6.84,0,0,0-.47,3.34Z" fill="#e6e7e8"/><path d="M385,61.79c0,2.75-.41,4.4-1.4,5.79a7.11,7.11,0,0,1-10.56,0c-1-1.39-1.39-3-1.39-5.79V52.88c0-2.75.4-4.4,1.39-5.79a7.11,7.11,0,0,1,10.56,0c1,1.39,1.4,3,1.4,5.79Zm-9.58-.07a6.85,6.85,0,0,0,.48,3.34,2.88,2.88,0,0,0,4.84,0c.41-.77.48-1.36.48-3.34V53c0-2-.07-2.57-.48-3.34a2.88,2.88,0,0,0-4.84,0,6.8,6.8,0,0,0-.48,3.34Z" fill="#e6e7e8"/><path d="M392.66,69.57h-3.77V45.11h5.9a6.75,6.75,0,0,1,4.84,1.47,6.86,6.86,0,0,1,2.2,5.53c0,3.08-1.1,5.21-3.3,6.35l3.59,11.11h-4l-3.22-10h-2.28ZM394.06,56c1.61,0,2.34-.19,2.93-.77a4.11,4.11,0,0,0,.92-3,4.06,4.06,0,0,0-.92-2.93c-.59-.58-1.32-.77-2.93-.77h-1.4V56Z" fill="#e6e7e8"/><path d="M415.1,69.57h-3.77V45.11h6.26c2.46,0,4,.47,5.14,1.58,1.32,1.24,1.94,3.08,1.94,5.68s-.62,4.47-1.94,5.72c-1.14,1.1-2.68,1.58-5.14,1.58H415.1Zm1.65-13.39c3,0,4-.91,4-3.81s-1-3.78-4-3.78H415.1v7.59Z" fill="#e6e7e8"/><path d="M431.46,64.25l-1,5.32h-3.7l4.7-24.46h5.17l4.95,24.46h-3.89l-1-5.32ZM434,49.8l-2,11h4Z" fill="#e6e7e8"/><path d="M448.32,69.57h-3.78V45.11h3.78Z" fill="#e6e7e8"/><path d="M466,69.57h-3.37L456,53.29V69.57h-3.59V45.11h3.81l6.16,15.22V45.11H466Z" fill="#e6e7e8"/><path d="M477,69.57h-3.78v-21h-4.73V45.11h13.27v3.48H477Z" fill="#e6e7e8"/></g></g></svg>