<svg xmlns="http://www.w3.org/2000/svg" viewBox="0 0 728 90"><title>txt3</title><g id="Layer_2" data-name="Layer 2"><g id="rect"><rect width="728" height="90" fill="none"/></g><g id="TRIED_AND_TRUSTED_TRACTION" data-name="TRIED AND TRUSTED TRACTION"><path d="M23.71,61.4H18.64V33.27H12.3V28.6H30.1v4.67H23.71Z" fill="#e6e7e8"/><path d="M38.46,61.4H33.39V28.6h7.92c3,0,4.92.59,6.49,2,2,1.67,3,4.18,3,7.42,0,4.13-1.48,7-4.43,8.51l4.82,14.9H45.83L41.51,47.93h-3Zm1.87-18.15c2.16,0,3.14-.24,3.93-1a5.41,5.41,0,0,0,1.23-4,5.36,5.36,0,0,0-1.23-3.93c-.79-.79-1.77-1-3.93-1H38.46v10Z" fill="#e6e7e8"/><path d="M60.53,61.4H55.47V28.6h5.06Z" fill="#e6e7e8"/><path d="M80.89,33.27H71.1v8.66h7.23V46.6H71.1V56.73h9.79V61.4H66V28.6H80.89Z" fill="#e6e7e8"/><path d="M84.87,28.6h8c6.44,0,9.49,3.3,9.49,10.28V51.12c0,7-3.05,10.28-9.49,10.28h-8Zm7.57,28.13c3.59,0,4.87-1.87,4.87-7V40.26c0-5.17-1.28-7-4.87-7H89.93V56.73Z" fill="#e6e7e8"/><path d="M120.61,54.27l-1.32,7.13h-5l6.29-32.8h6.94l6.63,32.8H129l-1.37-7.13Zm3.45-19.37L121.4,49.6h5.36Z" fill="#e6e7e8"/><path d="M156.36,61.4h-4.53L143,39.57V61.4h-4.81V28.6h5.11L151.54,49V28.6h4.82Z" fill="#e6e7e8"/><path d="M161.81,28.6h8c6.44,0,9.49,3.3,9.49,10.28V51.12c0,7-3,10.28-9.49,10.28h-8Zm7.58,28.13c3.59,0,4.86-1.87,4.86-7V40.26c0-5.17-1.27-7-4.86-7h-2.51V56.73Z" fill="#e6e7e8"/><path d="M201.69,61.4h-5.06V33.27h-6.35V28.6h17.8v4.67h-6.39Z" fill="#e6e7e8"/><path d="M216.44,61.4h-5.06V28.6h7.91c3,0,4.92.59,6.49,2,2,1.67,2.95,4.18,2.95,7.42,0,4.13-1.48,7-4.42,8.51l4.81,14.9h-5.31l-4.32-13.47h-3.05Zm1.87-18.15c2.16,0,3.14-.24,3.93-1a5.41,5.41,0,0,0,1.23-4,5.36,5.36,0,0,0-1.23-3.93c-.79-.79-1.77-1-3.93-1h-1.87v10Z" fill="#e6e7e8"/><path d="M250.81,28.6V50.83c0,4.13-.5,6.24-1.87,8.11a8.14,8.14,0,0,1-6.79,3c-3,0-5.41-1-6.83-3s-1.87-4-1.87-8.11V28.6h5.06V51.66c0,3.89,1,5.46,3.64,5.46s3.59-1.57,3.59-5.46V28.6Z" fill="#e6e7e8"/><path d="M268.6,37.75c-.78-3.25-2.26-4.87-4.32-4.87a3.25,3.25,0,0,0-3.3,3.34,5,5,0,0,0,1.38,3.3c.84.93.84.93,4.33,3.59a27.15,27.15,0,0,1,4.86,4.42,9.58,9.58,0,0,1,2.12,6c0,5-3.64,8.36-9,8.36-5.6,0-8.9-3-9.93-9.24l4.87-1.43c.64,3.93,2.36,5.9,5.06,5.9a3.57,3.57,0,0,0,3.74-3.74c0-2.06-1-3.39-4.87-6.39-4.57-3.59-4.77-3.78-6-5.36a8.87,8.87,0,0,1-1.82-5.45c0-4.72,3.54-8.07,8.56-8.07,4.67,0,7.81,2.8,9.19,8.21Z" fill="#e6e7e8"/><path d="M286.94,61.4h-5.06V33.27h-6.34V28.6h17.79v4.67h-6.39Z" fill="#e6e7e8"/><path d="M311.48,33.27h-9.79v8.66h7.23V46.6h-7.23V56.73h9.79V61.4H296.63V28.6h14.85Z" fill="#e6e7e8"/><path d="M315.46,28.6h8c6.44,0,9.49,3.3,9.49,10.28V51.12c0,7-3,10.28-9.49,10.28h-8ZM323,56.73c3.59,0,4.87-1.87,4.87-7V40.26c0-5.17-1.28-7-4.87-7h-2.51V56.73Z" fill="#e6e7e8"/><path d="M355.33,61.4h-5.06V33.27h-6.34V28.6h17.79v4.67h-6.39Z" fill="#e6e7e8"/><path d="M370.08,61.4H365V28.6h7.91c3,0,4.92.59,6.49,2,2,1.67,2.95,4.18,2.95,7.42,0,4.13-1.47,7-4.42,8.51l4.82,14.9h-5.31l-4.33-13.47h-3.05ZM372,43.25c2.16,0,3.15-.24,3.93-1a5.41,5.41,0,0,0,1.23-4,5.36,5.36,0,0,0-1.23-3.93c-.78-.79-1.77-1-3.93-1h-1.87v10Z" fill="#e6e7e8"/><path d="M392.21,54.27l-1.33,7.13h-5l6.29-32.8h6.93l6.64,32.8h-5.21l-1.38-7.13Zm3.44-19.37L393,49.6h5.35Z" fill="#e6e7e8"/><path d="M422.1,39.27v-.69c0-3.78-1.33-5.7-3.83-5.7a3.21,3.21,0,0,0-3,1.62c-.64,1.09-.79,2.07-.79,4.72V50.14A14.07,14.07,0,0,0,415,55a3.41,3.41,0,0,0,3.25,2.12c1.86,0,3.09-1.08,3.63-3.25a18.14,18.14,0,0,0,.3-4h5.11V51c0,7.13-3.1,10.87-9,10.87-3.29,0-5.89-1.28-7.32-3.64-1.23-2-1.57-3.93-1.57-8.8V40.26c0-5.22.39-7,1.91-9.1s3.89-3.05,6.94-3.05c5.6,0,8.89,3.74,8.89,10.18v1Z" fill="#e6e7e8"/><path d="M441.32,61.4h-5.06V33.27h-6.34V28.6h17.8v4.67h-6.4Z" fill="#e6e7e8"/><path d="M456.07,61.4H451V28.6h5.06Z" fill="#e6e7e8"/><path d="M479.13,51c0,3.69-.54,5.9-1.87,7.77-1.47,2.07-3.93,3.15-7.08,3.15s-5.6-1.08-7.08-3.15c-1.32-1.87-1.86-4.08-1.86-7.77V39c0-3.69.54-5.9,1.86-7.77,1.48-2.07,3.94-3.15,7.08-3.15s5.61,1.08,7.08,3.15c1.33,1.87,1.87,4.08,1.87,7.77Zm-12.83-.1c0,2.61.15,3.5.64,4.48a3.86,3.86,0,0,0,6.49,0c.54-1,.64-1.82.64-4.48V39.13c0-2.66-.1-3.45-.64-4.48a3.86,3.86,0,0,0-6.49,0c-.49,1-.64,1.87-.64,4.48Z" fill="#e6e7e8"/><path d="M502.49,61.4H498l-8.85-21.83V61.4H484.3V28.6h5.11L497.67,49V28.6h4.82Z" fill="#e6e7e8"/></g></g></svg>